<?xml version="1.0" standalone="no"?>
<!DOCTYPE svg PUBLIC "-//W3C//DTD SVG 20010904//EN"
 "http://www.w3.org/TR/2001/REC-SVG-20010904/DTD/svg10.dtd">
<svg version="1.0" xmlns="http://www.w3.org/2000/svg"
 width="1280.000000pt" height="821.000000pt" viewBox="0 0 1280.000000 821.000000"
 preserveAspectRatio="xMidYMid meet">
<metadata>
Created by potrace 1.15, written by Peter Selinger 2001-2017
</metadata>
<g transform="translate(0.000000,821.000000) scale(0.100000,-0.100000)"
fill="#000000" stroke="none">
<path d="M11130 8190 c-19 -19 -22 -19 -36 -5 -21 21 -77 19 -97 -3 -10 -10
-17 -35 -17 -55 0 -40 31 -83 102 -138 l39 -32 46 44 c48 47 83 105 83 139 0
29 -44 70 -75 70 -14 0 -34 -9 -45 -20z"/>
<path d="M10765 8130 c-48 -18 -65 -82 -31 -118 15 -17 15 -20 1 -32 -22 -18
-19 -76 5 -100 42 -42 120 -9 193 82 l30 37 -27 35 c-52 69 -129 112 -171 96z"/>
<path d="M11314 8108 c-22 -10 -44 -47 -44 -74 0 -24 29 -75 72 -126 40 -48
40 -48 69 -32 47 24 111 86 125 121 18 41 3 77 -39 94 -25 11 -34 10 -57 -3
-26 -15 -29 -14 -46 2 -25 24 -54 31 -80 18z"/>
<path d="M10514 8041 c-33 -20 -114 -110 -114 -127 0 -19 85 -97 128 -116 37
-17 48 -18 72 -8 49 20 59 94 17 121 -6 4 -3 16 7 30 23 33 20 66 -9 94 -29
30 -59 32 -101 6z"/>
<path d="M11622 7933 c-62 -25 -63 -26 -57 -57 11 -51 44 -119 72 -148 41 -42
93 -37 118 13 11 20 12 35 6 53 -8 21 -7 25 13 30 22 5 46 42 46 70 0 7 -9 25
-21 40 -17 22 -28 26 -67 26 -26 -1 -75 -12 -110 -27z"/>
<path d="M11106 7929 c-14 -11 -26 -29 -26 -40 0 -14 -7 -19 -29 -19 -42 0
-74 -30 -74 -69 0 -62 69 -101 182 -101 50 0 50 0 58 38 4 20 8 66 8 100 0 57
-3 66 -28 88 -34 29 -56 30 -91 3z"/>
<path d="M10244 7857 c-113 -61 -154 -136 -101 -185 25 -24 57 -28 88 -12 15
8 21 7 25 -4 8 -20 58 -39 84 -31 33 11 53 50 47 92 -6 33 -84 164 -97 163 -3
-1 -23 -11 -46 -23z"/>
<path d="M11370 7790 c-24 -26 -60 -128 -60 -173 0 -14 74 -43 139 -53 103
-16 163 92 75 136 -24 12 -28 20 -26 45 7 71 -76 100 -128 45z"/>
<path d="M11872 7795 c-17 -8 -38 -28 -47 -46 -15 -28 -55 -135 -55 -146 0
-11 119 -55 159 -60 92 -10 135 67 70 128 -21 20 -29 34 -24 48 17 53 -46 99
-103 76z"/>
<path d="M10777 7750 c-36 -28 -42 -79 -19 -165 l18 -70 45 3 c143 10 222 90
153 159 -20 20 -32 24 -55 19 -24 -4 -29 -2 -29 14 0 22 -45 60 -70 60 -10 0
-29 -9 -43 -20z"/>
<path d="M10455 7695 c-42 -41 -26 -105 47 -189 34 -39 36 -39 67 -27 17 8 54
35 81 60 42 40 50 53 50 83 0 59 -61 96 -104 65 -16 -12 -22 -10 -42 10 -30
30 -69 29 -99 -2z"/>
<path d="M9950 7630 c-28 -28 -27 -83 3 -107 19 -15 22 -25 19 -59 -3 -35 0
-44 23 -63 15 -11 37 -21 48 -21 29 0 98 77 123 137 l22 52 -47 30 c-87 56
-155 67 -191 31z"/>
<path d="M11100 7623 c-14 -18 -19 -35 -15 -50 4 -19 1 -23 -19 -23 -27 0 -66
-42 -66 -71 0 -10 11 -31 24 -46 23 -26 30 -28 98 -28 40 1 85 4 101 8 25 7
27 11 27 65 0 109 -35 172 -96 172 -23 0 -38 -8 -54 -27z"/>
<path d="M11633 7559 c-56 -22 -113 -77 -113 -110 0 -34 46 -71 85 -68 27 3
38 -2 55 -24 16 -20 30 -27 54 -27 72 0 90 75 45 185 -28 70 -44 76 -126 44z"/>
<path d="M10265 7498 c-49 -56 -77 -120 -69 -153 13 -52 84 -73 118 -36 17 18
20 19 51 4 28 -13 36 -14 60 -2 39 19 52 62 32 105 -16 33 -121 124 -144 124
-6 0 -28 -19 -48 -42z"/>
<path d="M12038 7508 c-15 -5 -30 -19 -34 -30 -4 -14 -9 -17 -17 -9 -18 18
-82 13 -100 -7 -25 -27 -21 -76 7 -110 14 -16 53 -44 87 -62 l62 -33 25 29
c13 16 35 53 49 83 21 44 24 60 17 89 -11 43 -53 65 -96 50z"/>
<path d="M9797 7480 c-28 -22 -52 -79 -66 -152 l-8 -47 41 -17 c23 -9 69 -19
103 -21 56 -5 63 -3 87 20 40 40 30 98 -20 117 -19 8 -24 17 -24 44 0 25 -7
40 -26 55 -33 26 -54 26 -87 1z"/>
<path d="M10655 7441 c-38 -23 -115 -106 -115 -124 0 -14 69 -83 110 -111 37
-24 95 -21 114 6 20 28 20 67 2 94 -12 17 -12 22 0 39 23 31 17 71 -12 94 -33
26 -60 26 -99 2z"/>
<path d="M11318 7444 c-28 -15 -45 -54 -33 -73 4 -7 -3 -11 -18 -11 -33 0 -67
-39 -67 -77 0 -52 37 -73 129 -73 42 0 87 3 100 7 23 6 23 9 18 79 -6 84 -28
137 -63 153 -31 14 -33 14 -66 -5z"/>
<path d="M10888 7390 c-9 -6 -22 -26 -28 -44 -9 -30 -7 -45 14 -107 36 -102
39 -104 116 -77 117 42 160 109 104 165 -19 19 -32 24 -56 21 -26 -4 -36 0
-56 23 -25 30 -62 37 -94 19z"/>
<path d="M11539 7291 c-37 -30 -31 -92 15 -174 l37 -66 51 20 c125 49 172 123
113 179 -19 18 -31 22 -60 17 -29 -5 -40 -1 -60 19 -29 29 -64 31 -96 5z"/>
<path d="M9574 7227 c-58 -57 -64 -66 -64 -104 0 -32 5 -46 22 -57 29 -20 67
-20 89 0 16 14 19 14 38 -5 28 -28 66 -26 96 4 43 42 30 90 -46 171 -29 30
-56 54 -61 54 -5 0 -38 -28 -74 -63z"/>
<path d="M10085 7232 c-111 -62 -110 -60 -65 -138 36 -63 83 -104 119 -104 51
0 89 67 62 109 -7 10 -2 20 15 33 16 13 24 29 24 51 0 38 -7 50 -37 66 -34 17
-64 13 -118 -17z"/>
<path d="M11870 7230 c-15 -16 -37 -61 -50 -101 -26 -81 -29 -76 58 -109 74
-28 127 -26 157 5 14 13 25 31 25 39 0 32 -20 66 -44 72 -21 5 -23 10 -19 44
10 76 -72 109 -127 50z"/>
<path d="M12140 7213 c-20 -25 -22 -37 -18 -115 2 -48 8 -91 12 -95 9 -9 99
-8 149 1 43 8 87 50 87 83 0 31 -42 73 -75 73 -18 0 -25 5 -25 20 0 59 -91 82
-130 33z"/>
<path d="M10335 7170 c-23 -69 -24 -141 -2 -174 31 -47 127 -27 127 26 0 12 9
16 35 15 45 -1 75 26 75 69 0 55 -62 94 -176 110 l-42 6 -17 -52z"/>
<path d="M11133 7125 c-17 -7 -34 -22 -37 -33 -5 -15 -15 -20 -41 -19 -71 2
-102 -77 -51 -128 26 -26 157 -71 181 -61 21 8 58 139 51 180 -11 56 -54 82
-103 61z"/>
<path d="M11356 7107 c-30 -30 -33 -62 -10 -95 15 -21 15 -25 0 -41 -38 -42
-4 -111 54 -111 43 0 77 20 134 78 l48 50 -33 41 c-45 56 -93 91 -133 98 -28
4 -39 0 -60 -20z"/>
<path d="M10655 7085 c-45 -44 -28 -93 61 -174 l57 -52 50 48 c61 59 91 120
78 157 -17 44 -84 62 -115 30 -14 -14 -18 -14 -38 0 -32 23 -65 20 -93 -9z"/>
<path d="M9379 7038 c-40 -54 -59 -99 -59 -138 0 -65 77 -93 125 -46 14 14 27
20 30 15 4 -5 22 -9 41 -9 64 0 95 65 58 119 -19 26 -130 101 -150 101 -8 0
-28 -19 -45 -42z"/>
<path d="M9848 7047 c-31 -31 -94 -135 -86 -141 1 -2 29 -22 62 -45 92 -63
163 -65 186 -5 13 32 6 58 -23 84 -16 16 -18 23 -9 32 18 18 14 62 -8 86 -32
34 -82 29 -122 -11z"/>
<path d="M11667 6953 c-34 -120 -12 -193 59 -193 36 0 74 28 74 56 0 11 6 13
20 9 37 -12 89 30 90 73 0 52 -66 91 -181 107 l-46 7 -16 -59z"/>
<path d="M10500 6920 c-21 -21 -28 -84 -10 -95 7 -4 1 -16 -15 -30 -32 -31
-33 -76 -2 -105 33 -32 94 -22 165 26 31 22 58 46 60 54 4 24 -60 122 -97 147
-42 28 -75 29 -101 3z"/>
<path d="M12308 6924 c-53 -28 -46 -105 12 -127 23 -9 30 -18 30 -39 0 -53 60
-85 111 -58 31 17 50 67 56 145 l6 72 -46 11 c-62 16 -136 14 -169 -4z"/>
<path d="M11978 6900 c-24 -25 -29 -36 -23 -58 9 -37 34 -62 62 -62 19 0 23
-5 23 -28 0 -33 36 -72 66 -72 58 0 94 65 94 168 l0 70 -31 6 c-17 3 -61 6
-96 6 -58 0 -67 -3 -95 -30z"/>
<path d="M9131 6901 c-27 -27 -44 -96 -39 -158 3 -29 7 -55 10 -58 10 -11 99
-17 143 -10 88 13 126 89 69 134 -15 12 -35 21 -45 21 -14 0 -19 7 -19 25 0
56 -79 86 -119 46z"/>
<path d="M10235 6904 c-11 -3 -37 -10 -59 -16 l-39 -9 7 -62 c11 -111 66 -181
126 -162 29 9 53 50 48 80 -4 19 -1 25 12 25 24 0 60 42 60 72 0 44 -30 70
-86 74 -27 1 -58 0 -69 -2z"/>
<path d="M10851 6814 c-32 -68 -45 -134 -32 -167 22 -56 97 -61 129 -8 14 24
21 27 36 19 25 -14 72 8 86 41 24 58 -19 104 -129 140 -35 12 -65 21 -67 21
-1 0 -11 -20 -23 -46z"/>
<path d="M9690 6827 c-15 -7 -31 -29 -39 -53 -12 -35 -12 -51 0 -115 l14 -74
55 3 c112 6 165 33 176 89 9 43 -33 87 -77 81 -24 -4 -29 -1 -29 17 0 43 -58
73 -100 52z"/>
<path d="M11285 6826 c-99 -25 -135 -55 -135 -114 0 -38 28 -62 73 -62 20 0
37 -5 37 -10 0 -20 49 -60 73 -60 13 0 34 12 48 26 20 21 24 35 23 77 -2 62
-34 151 -54 154 -8 1 -37 -4 -65 -11z"/>
<path d="M12602 6786 c-72 -78 -93 -154 -54 -189 26 -23 89 -22 103 2 11 17
14 17 40 2 55 -31 121 22 105 85 -8 30 -73 97 -124 126 l-30 18 -40 -44z"/>
<path d="M11532 6813 c-7 -3 -19 -18 -28 -35 -13 -25 -13 -35 -3 -60 11 -26
10 -31 -10 -44 -30 -21 -30 -87 1 -108 39 -27 89 -20 155 23 33 21 64 44 67
50 7 11 -25 81 -56 121 -38 48 -87 69 -126 53z"/>
<path d="M8890 6778 c-18 -13 -51 -44 -73 -70 l-40 -47 28 -37 c37 -48 111
-94 151 -94 61 0 92 61 56 110 -18 24 -19 30 -7 40 22 18 19 76 -5 100 -26 26
-69 25 -110 -2z"/>
<path d="M11875 6725 c-14 -13 -25 -36 -25 -50 0 -20 -5 -25 -24 -25 -34 0
-69 -46 -61 -80 11 -46 39 -64 110 -68 35 -2 80 -1 100 2 l35 7 0 74 c0 81 -9
114 -40 145 -27 27 -66 25 -95 -5z"/>
<path d="M9482 6725 c-33 -14 -132 -108 -132 -125 0 -17 105 -116 137 -129 47
-19 81 -7 99 34 11 27 11 40 2 60 -6 14 -16 25 -21 25 -6 0 -3 8 5 18 37 43
31 95 -13 117 -34 18 -35 18 -77 0z"/>
<path d="M10030 6733 c-34 -13 -62 -50 -80 -111 -29 -94 -28 -97 35 -121 66
-25 142 -27 173 -5 43 30 21 124 -29 124 -11 0 -14 10 -11 39 3 32 -1 42 -23
60 -28 21 -38 24 -65 14z"/>
<path d="M12203 6663 c-54 -40 -103 -104 -103 -135 0 -50 90 -89 120 -53 12
14 16 13 35 -5 31 -30 82 -24 108 12 18 24 19 32 8 68 -7 23 -34 63 -64 96
l-52 56 -52 -39z"/>
<path d="M10544 6636 c-17 -7 -34 -21 -38 -31 -18 -48 8 -105 50 -105 20 0 24
-5 24 -29 0 -70 80 -101 126 -48 24 28 44 104 44 166 0 45 -6 48 -110 56 -45
4 -75 1 -96 -9z"/>
<path d="M11078 6564 c-31 -70 -36 -152 -11 -183 14 -16 30 -24 51 -24 33 0
72 27 72 49 0 9 10 11 33 7 67 -11 110 59 71 116 -18 26 -101 66 -158 76 -36
7 -36 7 -58 -41z"/>
<path d="M8561 6569 l-44 -11 7 -70 c7 -73 34 -141 61 -152 54 -20 105 9 105
60 0 26 4 34 18 34 26 0 62 42 62 72 0 14 -8 36 -19 49 -15 19 -29 23 -82 25
-35 2 -84 -2 -108 -7z"/>
<path d="M10290 6560 c-22 -22 -27 -79 -9 -97 8 -8 6 -13 -8 -17 -20 -6 -43
-45 -43 -72 0 -25 47 -64 78 -64 34 0 141 51 166 79 17 19 17 22 -15 81 -54
102 -121 138 -169 90z"/>
<path d="M9135 6549 c-33 -12 -62 -22 -64 -24 -2 -2 2 -28 9 -57 33 -139 104
-195 167 -132 20 20 24 32 19 55 -5 25 -2 31 19 39 49 18 59 77 20 115 -31 32
-86 33 -170 4z"/>
<path d="M12449 6503 c-18 -45 -22 -154 -7 -183 32 -60 114 -55 132 8 8 25 14
30 31 26 34 -8 75 31 75 71 0 59 -43 84 -168 99 -50 6 -53 6 -63 -21z"/>
<path d="M10845 6495 c-75 -27 -96 -84 -49 -132 17 -17 33 -24 50 -20 19 3 24
0 24 -15 0 -27 45 -68 75 -68 14 0 37 11 50 25 21 20 25 33 25 87 0 35 -3 80
-6 101 l-7 37 -61 0 c-33 -1 -79 -7 -101 -15z"/>
<path d="M11374 6491 c-59 -27 -70 -67 -33 -115 14 -17 30 -26 50 -26 24 0 29
-4 29 -25 0 -30 36 -65 66 -65 13 0 35 10 50 23 22 19 28 34 32 80 2 31 1 77
-2 102 l-7 45 -72 0 c-48 0 -85 -7 -113 -19z"/>
<path d="M8837 6478 c-26 -21 -37 -61 -23 -89 10 -21 9 -26 -11 -42 -30 -24
-31 -79 -2 -108 17 -17 30 -20 63 -17 45 5 152 67 163 94 3 8 -10 40 -30 72
-53 86 -117 122 -160 90z"/>
<path d="M9722 6473 c-19 -9 -55 -35 -80 -58 -46 -42 -46 -43 -32 -71 24 -45
103 -120 133 -126 35 -7 69 11 85 45 11 23 11 32 -2 58 -14 28 -14 31 5 50 26
26 24 65 -6 94 -28 29 -57 31 -103 8z"/>
<path d="M11680 6462 c-31 -32 -36 -47 -21 -72 7 -10 2 -19 -19 -32 -54 -32
-49 -107 7 -129 33 -13 101 0 163 30 l40 19 0 -33 c0 -70 73 -92 192 -59 55
16 58 18 58 49 0 86 -60 195 -108 195 -34 0 -72 -38 -72 -73 0 -25 -7 -36 -30
-49 -23 -13 -32 -14 -34 -5 -36 118 -71 172 -118 183 -22 5 -34 0 -58 -24z"/>
<path d="M8326 6429 c-19 -16 -49 -52 -65 -79 l-30 -49 41 -35 c48 -42 115
-76 147 -76 30 0 71 43 71 75 0 14 -10 36 -23 49 -20 20 -22 26 -10 42 33 46
-1 104 -62 104 -24 0 -45 -9 -69 -31z"/>
<path d="M9941 6414 c-26 -33 -27 -68 -2 -93 17 -17 18 -24 8 -50 -23 -63 23
-113 89 -97 32 8 91 68 120 122 l19 36 -40 34 c-89 77 -158 94 -194 48z"/>
<path d="M12199 6368 c-61 -84 -75 -152 -39 -188 30 -30 85 -27 106 6 12 17
20 22 27 15 18 -18 75 -13 97 9 43 43 12 109 -78 164 -33 20 -65 36 -71 36 -6
0 -25 -19 -42 -42z"/>
<path d="M9348 6332 c-48 -47 -60 -65 -65 -98 -5 -36 -2 -43 22 -62 32 -25 62
-28 89 -7 17 13 22 13 38 -2 24 -22 73 -21 98 2 25 22 27 81 4 115 -28 42 -97
110 -112 110 -8 0 -41 -26 -74 -58z"/>
<path d="M10623 6349 c-43 -12 -76 -55 -68 -89 7 -30 40 -60 66 -60 12 0 19
-7 19 -19 0 -31 42 -73 73 -73 58 0 87 56 87 165 l0 74 -52 7 c-66 7 -85 7
-125 -5z"/>
<path d="M8023 6316 c-27 -23 -28 -27 -28 -123 l0 -98 78 -3 c91 -3 139 14
157 58 20 48 -17 100 -71 100 -13 0 -19 7 -19 24 0 27 -42 66 -71 66 -10 0
-31 -11 -46 -24z"/>
<path d="M8615 6206 c-58 -57 -65 -68 -65 -103 0 -62 51 -95 103 -68 26 13 31
13 50 0 69 -49 141 22 103 102 -17 36 -103 133 -117 133 -5 0 -38 -29 -74 -64z"/>
<path d="M7739 6230 c-27 -16 -43 -64 -29 -90 10 -18 8 -25 -14 -45 -51 -47
-18 -125 53 -125 34 0 97 28 148 67 l33 24 -29 58 c-48 94 -114 139 -162 111z"/>
<path d="M9130 6233 c-8 -3 -23 -13 -33 -21 -13 -12 -20 -13 -29 -4 -7 7 -29
12 -49 12 -62 0 -87 -56 -54 -120 15 -29 112 -110 131 -110 15 0 90 81 108
117 9 18 16 43 16 56 0 44 -51 84 -90 70z"/>
<path d="M10376 6209 c-38 -30 -34 -85 9 -114 24 -16 29 -26 27 -49 -5 -37 31
-76 71 -76 41 0 80 46 101 118 26 96 25 98 -50 122 -84 26 -124 25 -158 -1z"/>
<path d="M10160 6185 c-18 -19 -22 -31 -17 -60 3 -19 2 -35 -3 -35 -19 0 -50
-45 -50 -71 0 -42 35 -69 89 -69 54 0 176 53 169 73 -3 6 -13 36 -24 66 -38
108 -112 151 -164 96z"/>
<path d="M7105 6150 c-75 -36 -118 -79 -118 -119 0 -52 54 -92 94 -70 17 9 25
6 44 -15 29 -32 77 -34 105 -6 30 30 26 87 -11 156 -45 88 -45 88 -114 54z"/>
<path d="M7385 6167 c-66 -30 -64 -106 2 -137 22 -10 33 -22 33 -37 0 -64 93
-84 134 -30 16 22 22 47 25 109 2 44 -1 84 -7 90 -16 16 -153 20 -187 5z"/>
<path d="M9551 6113 c-64 -72 -81 -124 -53 -162 26 -35 82 -41 110 -11 17 18
20 19 32 5 7 -8 27 -15 46 -15 58 0 88 54 60 108 -15 29 -122 132 -137 132 -4
0 -30 -26 -58 -57z"/>
<path d="M6753 6140 c-79 -18 -112 -70 -76 -118 13 -17 31 -28 51 -30 26 -3
32 -8 32 -28 0 -47 55 -77 105 -58 30 12 45 60 45 147 0 68 -3 86 -16 91 -21
8 -101 6 -141 -4z"/>
<path d="M6428 6118 c-61 -92 -77 -171 -44 -207 27 -29 81 -28 108 2 19 21 25
23 49 13 65 -24 116 68 70 125 -21 27 -128 89 -154 89 -8 0 -21 -10 -29 -22z"/>
<path d="M9810 6120 c-41 -41 -11 -138 65 -210 l25 -23 36 19 c57 30 124 108
124 143 0 52 -63 86 -112 60 -16 -9 -24 -7 -42 10 -28 27 -70 27 -96 1z"/>
<path d="M8312 6075 c-50 -45 -82 -97 -82 -132 0 -50 89 -86 120 -48 11 13 15
14 29 1 43 -37 103 -24 121 27 8 25 6 38 -11 74 -19 38 -100 123 -119 123 -4
0 -30 -20 -58 -45z"/>
<path d="M5335 6053 c-13 -114 32 -203 94 -188 33 7 61 40 61 70 0 18 4 22 19
18 10 -3 30 5 46 19 36 31 36 71 1 107 -24 24 -34 26 -120 29 l-94 4 -7 -59z"/>
<path d="M6105 6095 c-27 -8 -53 -14 -57 -15 -13 0 -9 -61 8 -122 17 -61 58
-108 93 -108 35 0 71 39 71 76 0 23 5 34 15 34 47 0 73 91 35 125 -26 24 -102
28 -165 10z"/>
<path d="M5720 6073 c-32 -41 -22 -89 35 -168 l46 -66 42 23 c22 13 60 41 84
64 35 33 43 47 43 76 0 56 -63 95 -105 64 -18 -13 -22 -12 -42 10 -31 33 -75
32 -103 -3z"/>
<path d="M5031 6048 l-53 -10 4 -76 c6 -91 21 -128 61 -149 23 -12 35 -12 57
-3 30 13 56 51 47 73 -3 9 6 18 28 26 69 25 69 108 0 137 -38 16 -65 16 -144
2z"/>
<path d="M9243 6007 c-41 -70 -55 -120 -41 -158 19 -56 75 -65 118 -19 17 18
31 26 35 20 9 -15 58 -12 83 6 16 11 22 25 22 54 0 31 -6 44 -35 69 -35 30
-91 63 -130 75 -17 5 -26 -4 -52 -47z"/>
<path d="M4394 6030 c-12 -4 -24 -16 -27 -25 -5 -12 -11 -14 -26 -5 -52 27
-111 -5 -111 -60 0 -39 52 -97 119 -133 l50 -28 27 35 c42 52 74 117 74 149 0
32 -40 77 -67 76 -10 0 -27 -4 -39 -9z"/>
<path d="M4650 6031 c-23 -7 -25 -12 -24 -62 1 -111 34 -179 87 -179 37 0 77
36 77 71 0 21 5 29 18 29 31 0 62 37 62 75 0 54 -36 75 -124 74 -39 -1 -82 -4
-96 -8z"/>
<path d="M7951 5975 c-42 -69 -53 -145 -26 -175 27 -30 90 -27 111 4 13 21 19
24 42 15 35 -14 78 5 90 40 13 36 -6 81 -44 108 -39 28 -110 63 -126 63 -8 0
-29 -25 -47 -55z"/>
<path d="M8882 5977 c-32 -34 -29 -90 11 -168 37 -74 44 -76 134 -32 65 32 93
64 93 108 0 47 -52 85 -90 65 -15 -8 -25 -4 -49 20 -35 36 -70 38 -99 7z"/>
<path d="M8614 5938 c-59 -62 -74 -88 -74 -130 0 -64 59 -97 109 -60 24 17 29
18 46 6 31 -23 71 -17 94 12 25 32 26 55 6 93 -16 31 -113 121 -130 121 -6 0
-29 -19 -51 -42z"/>
<path d="M3928 5929 c-75 -11 -112 -31 -128 -68 -10 -26 -10 -35 4 -56 21 -31
52 -48 76 -40 15 5 19 0 22 -21 4 -37 48 -69 82 -60 58 14 78 92 53 201 -14
57 -17 58 -109 44z"/>
<path d="M5492 5893 c-72 -112 -68 -190 10 -209 22 -5 33 0 58 24 16 17 32 26
36 21 11 -18 70 -9 92 14 28 30 28 56 0 97 -21 31 -128 100 -154 100 -7 0 -26
-21 -42 -47z"/>
<path d="M7277 5902 c-27 -29 -37 -70 -37 -147 l0 -73 64 -7 c80 -9 141 8 170
47 19 27 19 29 3 63 -12 26 -25 37 -47 41 -20 4 -30 13 -30 24 0 9 -9 29 -21
44 -24 31 -77 36 -102 8z"/>
<path d="M7686 5905 c-17 -9 -51 -32 -78 -52 l-47 -37 22 -39 c32 -58 89 -115
122 -123 59 -15 113 48 86 100 -12 21 -11 26 8 45 28 28 27 72 -2 99 -27 26
-70 28 -111 7z"/>
<path d="M10364 5895 c-18 -18 -29 -22 -46 -16 -31 11 -66 2 -83 -22 -37 -53
-4 -109 93 -160 l71 -37 25 33 c33 44 66 116 66 148 0 69 -77 103 -126 54z"/>
<path d="M10025 5876 c-27 -27 -44 -80 -47 -151 l-3 -49 40 -12 c22 -7 68 -13
103 -13 49 -1 66 3 82 19 39 39 16 120 -33 120 -13 0 -17 9 -17 35 0 69 -75
100 -125 51z"/>
<path d="M6262 5818 c-30 -82 -35 -122 -18 -162 25 -59 104 -58 131 2 7 15 15
20 28 16 29 -9 75 15 85 44 23 65 -39 115 -180 146 -25 6 -28 2 -46 -46z"/>
<path d="M6985 5853 c-75 -23 -115 -56 -115 -98 0 -46 34 -78 77 -73 27 3 33
0 38 -20 6 -26 59 -53 84 -44 59 20 71 73 41 176 -26 86 -30 88 -125 59z"/>
<path d="M9685 5845 c-35 -34 -32 -76 10 -163 39 -82 33 -80 128 -40 51 22
107 78 107 107 0 10 -10 31 -22 46 -19 24 -26 27 -65 22 -31 -3 -43 -1 -43 9
0 18 -40 44 -68 44 -12 0 -34 -11 -47 -25z"/>
<path d="M3569 5834 c-23 -22 -30 -24 -49 -14 -48 26 -108 -29 -94 -86 8 -30
61 -77 125 -110 l51 -25 17 22 c41 56 71 124 71 160 0 74 -70 105 -121 53z"/>
<path d="M5192 5825 c-22 -19 -52 -53 -68 -76 l-29 -42 50 -43 c84 -74 146
-93 185 -54 26 26 26 77 0 105 -18 20 -19 23 -5 35 21 18 19 66 -5 90 -32 32
-83 26 -128 -15z"/>
<path d="M6653 5848 c-58 -11 -113 -53 -113 -86 0 -35 42 -75 78 -74 27 1 32
-3 32 -22 0 -51 80 -76 119 -37 26 26 34 93 19 166 -13 59 -14 60 -48 62 -19
0 -58 -3 -87 -9z"/>
<path d="M5996 5797 c-29 -29 -33 -63 -12 -92 12 -17 12 -21 -4 -32 -44 -31
-28 -103 26 -124 35 -13 98 16 158 71 l46 42 -38 53 c-70 99 -131 127 -176 82z"/>
<path d="M4465 5785 c-21 -20 -25 -33 -25 -87 0 -35 3 -80 6 -100 l7 -38 56 0
c107 0 181 39 181 95 0 36 -44 78 -76 72 -19 -3 -24 0 -24 15 0 27 -45 68 -75
68 -14 0 -37 -11 -50 -25z"/>
<path d="M5790 5790 c-11 -11 -20 -29 -20 -40 0 -15 -7 -20 -29 -20 -41 0 -74
-30 -74 -68 0 -59 50 -91 158 -99 l73 -6 12 71 c6 39 9 86 5 104 -15 70 -82
101 -125 58z"/>
<path d="M9491 5791 c-25 -10 -62 -33 -83 -50 -30 -26 -38 -39 -38 -66 0 -47
33 -78 80 -72 27 3 39 -2 55 -21 47 -55 125 -20 125 56 0 47 -58 172 -79 171
-9 0 -36 -8 -60 -18z"/>
<path d="M4160 5767 c-20 -13 -48 -49 -69 -88 l-36 -67 25 -21 c42 -35 122
-71 157 -71 69 0 103 90 47 126 -17 12 -22 20 -15 27 12 12 14 67 3 83 -9 14
-47 34 -65 34 -8 0 -29 -10 -47 -23z"/>
<path d="M8244 5779 c-49 -25 -51 -99 -4 -128 23 -13 26 -20 18 -35 -7 -12 -6
-27 2 -47 24 -58 76 -65 124 -16 30 29 76 128 76 161 0 17 -103 63 -155 70
-22 3 -50 1 -61 -5z"/>
<path d="M4917 5736 c-20 -21 -25 -22 -42 -10 -26 19 -48 18 -79 -7 -19 -15
-26 -30 -26 -53 0 -42 27 -76 100 -126 l58 -39 36 39 c43 48 76 110 76 145 0
33 -42 75 -75 75 -15 0 -36 -11 -48 -24z"/>
<path d="M9124 5736 c-44 -123 -47 -184 -9 -221 38 -39 97 -29 115 21 8 19 17
24 44 24 37 0 76 36 76 70 0 29 -38 68 -83 84 -64 25 -138 36 -143 22z"/>
<path d="M3231 5715 c-27 -35 -34 -76 -26 -151 8 -76 16 -80 120 -69 78 8 125
40 125 85 0 37 -29 71 -63 73 -18 1 -27 8 -27 18 0 9 -9 28 -21 43 -28 36 -80
36 -108 1z"/>
<path d="M7902 5720 c-27 -11 -45 -55 -37 -90 3 -14 36 -53 71 -88 l66 -62 31
26 c46 39 94 105 101 140 14 63 -67 112 -114 69 -15 -14 -20 -14 -46 0 -33 17
-40 17 -72 5z"/>
<path d="M8839 5681 c-26 -26 -29 -36 -29 -94 0 -35 3 -79 6 -96 l7 -31 68 0
c37 0 80 5 96 11 40 15 73 49 73 74 0 36 -37 75 -71 75 -24 0 -29 4 -29 24 0
28 -42 66 -72 66 -11 0 -33 -13 -49 -29z"/>
<path d="M3005 5688 c-23 -12 -125 -109 -125 -119 0 -13 60 -81 96 -110 47
-37 105 -40 128 -7 20 29 20 72 0 92 -14 15 -14 18 5 42 27 35 26 59 -4 89
-26 27 -66 32 -100 13z"/>
<path d="M8597 5681 c-30 -20 -106 -118 -107 -138 0 -14 72 -74 117 -97 43
-22 89 -20 113 4 26 26 26 74 0 100 -16 16 -18 25 -10 40 41 76 -39 140 -113
91z"/>
<path d="M7543 5665 c-54 -16 -133 -66 -133 -84 0 -24 63 -132 89 -152 59 -46
149 6 124 71 -10 26 -9 32 7 40 23 12 39 59 30 85 -16 44 -57 58 -117 40z"/>
<path d="M5445 5622 l-60 -18 2 -48 c4 -130 85 -213 154 -157 16 13 23 29 23
55 0 20 5 36 11 36 24 0 55 41 55 74 0 67 -74 90 -185 58z"/>
<path d="M3748 5620 c-14 -4 -52 -25 -83 -45 -41 -27 -54 -42 -50 -54 15 -41
73 -125 97 -143 38 -27 85 -21 112 15 17 23 19 32 9 58 -10 26 -9 32 13 54 31
31 31 69 -1 100 -25 26 -50 29 -97 15z"/>
<path d="M10232 5610 c-111 -50 -151 -120 -98 -169 19 -18 33 -22 63 -19 31 4
41 0 56 -19 18 -23 69 -32 93 -15 17 11 34 48 34 75 0 38 -68 167 -88 167 -9
0 -36 -9 -60 -20z"/>
<path d="M6466 5601 c-27 -30 -25 -79 4 -103 18 -14 20 -22 12 -30 -23 -23
-14 -75 15 -98 52 -41 122 -1 178 102 31 56 35 46 -54 110 -58 41 -127 50
-155 19z"/>
<path d="M9919 5602 c-14 -12 -22 -30 -22 -48 0 -24 -5 -29 -26 -31 -31 -1
-61 -36 -61 -70 0 -33 40 -70 85 -79 20 -3 64 -3 98 2 l62 9 3 57 c7 139 -64
220 -139 160z"/>
<path d="M6811 5574 c-30 -38 -26 -73 17 -156 43 -82 43 -83 130 -40 98 48
131 118 75 162 -21 16 -37 20 -61 17 -25 -5 -38 -1 -57 19 -33 33 -77 32 -104
-2z"/>
<path d="M7186 5571 c-27 -29 -39 -89 -31 -157 l6 -62 39 -7 c75 -13 180 15
194 50 19 51 -9 105 -55 105 -24 0 -29 4 -29 25 0 56 -86 88 -124 46z"/>
<path d="M7815 5558 c-29 -15 -45 -39 -45 -65 0 -18 -6 -23 -24 -23 -28 0 -66
-42 -66 -72 0 -11 13 -33 30 -49 29 -29 31 -30 122 -27 l93 3 3 65 c4 80 -11
133 -45 159 -29 24 -40 25 -68 9z"/>
<path d="M6232 5538 c-28 -31 -40 -66 -48 -141 l-6 -63 52 -12 c124 -29 200
-5 200 63 0 24 -7 39 -26 54 -15 12 -32 21 -39 21 -7 0 -10 9 -8 23 3 13 -4
33 -17 50 -28 35 -77 37 -108 5z"/>
<path d="M5109 5509 l-67 -31 10 -37 c16 -56 55 -128 80 -145 60 -42 126 -2
115 69 -4 26 -2 35 8 35 20 0 45 40 45 72 0 71 -83 87 -191 37z"/>
<path d="M9655 5516 c-22 -7 -59 -23 -83 -35 -48 -25 -48 -25 -7 -118 28 -61
68 -103 100 -103 12 0 35 10 50 21 22 18 26 28 23 58 -4 30 0 41 24 63 32 30
36 66 11 97 -23 27 -68 34 -118 17z"/>
<path d="M3967 5509 c-9 -5 -24 -24 -33 -41 -20 -38 -31 -172 -15 -182 17 -11
145 -20 175 -12 36 9 66 41 66 70 0 32 -37 76 -64 76 -19 0 -22 4 -19 23 10
52 -60 95 -110 66z"/>
<path d="M4686 5504 c-9 -8 -16 -20 -16 -25 0 -6 -9 -7 -22 -3 -83 27 -138
-45 -88 -115 26 -37 148 -97 169 -84 22 14 70 110 77 153 8 49 -24 90 -71 90
-18 0 -41 -7 -49 -16z"/>
<path d="M4367 5492 c-10 -10 -17 -24 -17 -31 0 -8 -10 -10 -33 -6 -76 15
-117 -73 -59 -128 27 -26 127 -67 164 -67 25 0 58 77 65 150 4 47 2 58 -16 78
-27 27 -81 30 -104 4z"/>
<path d="M5721 5487 c-74 -30 -131 -84 -131 -125 0 -50 74 -94 106 -62 7 7 17
0 32 -20 17 -23 30 -30 56 -30 72 0 92 80 43 175 -45 87 -44 87 -106 62z"/>
<path d="M5920 5482 c-32 -26 -36 -87 -11 -171 19 -64 24 -71 44 -67 106 22
133 31 163 58 23 20 34 39 34 57 0 37 -38 71 -78 71 -18 0 -32 5 -32 10 0 20
-49 60 -73 60 -14 0 -35 -8 -47 -18z"/>
<path d="M8096 5450 c-46 -49 -76 -103 -76 -135 0 -24 46 -65 73 -65 13 0 36
9 50 20 22 17 26 18 37 5 17 -21 73 -19 92 3 41 48 26 94 -56 170 -32 28 -61
52 -65 52 -5 0 -29 -23 -55 -50z"/>
<path d="M2726 5477 l-49 -10 6 -67 c6 -72 35 -143 62 -154 56 -21 108 10 108
64 0 19 5 30 14 30 23 0 63 47 63 75 0 14 -11 37 -25 50 -20 21 -33 25 -77 24
-29 -1 -75 -6 -102 -12z"/>
<path d="M9275 5455 c-14 -13 -25 -35 -25 -47 0 -29 26 -68 46 -68 16 0 19
-16 4 -25 -18 -11 -10 -56 15 -80 51 -52 114 -17 166 93 l32 66 -29 23 c-34
27 -124 63 -160 63 -14 0 -36 -11 -49 -25z"/>
<path d="M8383 5444 c-23 -23 -25 -31 -20 -78 3 -30 15 -77 28 -105 21 -50 23
-52 53 -45 111 24 176 70 176 124 0 39 -41 74 -80 68 -26 -4 -33 -1 -41 19 -8
22 -44 43 -75 43 -8 0 -27 -12 -41 -26z"/>
<path d="M3056 5389 c-18 -21 -24 -38 -20 -53 4 -19 1 -25 -20 -30 -30 -7 -59
-56 -49 -83 21 -59 70 -72 179 -48 l76 17 -7 56 c-9 74 -31 128 -63 152 -35
28 -66 25 -96 -11z"/>
<path d="M3371 5384 c-80 -40 -79 -35 -34 -131 39 -83 100 -120 148 -89 30 20
41 59 26 92 -6 15 -7 24 -1 24 19 0 50 40 50 65 0 38 -42 75 -83 75 -19 0 -66
-16 -106 -36z"/>
<path d="M9092 5399 c-69 -27 -122 -77 -122 -116 0 -43 39 -77 82 -70 26 4 37
0 53 -19 11 -13 32 -26 47 -30 22 -5 34 0 59 25 28 29 31 36 25 72 -8 51 -62
159 -79 158 -6 0 -36 -9 -65 -20z"/>
<path d="M8724 5386 c-17 -7 -34 -21 -38 -31 -18 -48 8 -105 50 -105 21 0 24
-5 24 -34 0 -63 70 -94 119 -53 23 19 40 70 47 140 7 65 6 67 -20 76 -48 19
-149 23 -182 7z"/>
<path d="M4851 5371 c-11 -11 -24 -37 -30 -58 -14 -49 -14 -150 -1 -158 6 -4
43 -9 83 -11 57 -4 79 -2 107 13 67 35 63 116 -8 137 -24 7 -32 14 -32 32 0
55 -79 85 -119 45z"/>
<path d="M6662 5373 c-18 -7 -42 -57 -36 -79 3 -13 -6 -25 -29 -39 -40 -25
-48 -70 -18 -106 17 -21 27 -24 83 -23 34 1 81 8 103 16 34 13 40 20 43 47 4
42 -24 124 -55 161 -24 29 -56 37 -91 23z"/>
<path d="M5401 5345 c-27 -23 -59 -90 -76 -158 -6 -22 -1 -27 59 -51 88 -35
148 -35 175 0 12 15 21 33 21 40 0 28 -24 65 -47 70 -18 5 -21 9 -13 24 16 29
12 49 -15 75 -31 32 -66 32 -104 0z"/>
<path d="M7537 5359 c-27 -16 -46 -68 -53 -147 -5 -50 -3 -71 6 -77 7 -4 52
-10 100 -13 85 -4 89 -4 114 21 33 33 34 76 3 105 -13 12 -31 22 -40 22 -12 0
-17 8 -17 28 0 54 -65 89 -113 61z"/>
<path d="M7020 5333 c-79 -14 -130 -51 -130 -94 0 -32 44 -72 76 -71 26 0 32
-4 40 -31 11 -38 50 -56 92 -41 45 16 60 75 42 166 l-15 73 -40 1 c-22 1 -51
0 -65 -3z"/>
<path d="M10083 5328 c-12 -6 -27 -23 -33 -39 -16 -38 -1 -80 55 -152 l45 -57
32 16 c46 24 125 101 132 129 9 36 -9 70 -45 85 -28 12 -36 11 -60 -3 -16 -9
-29 -12 -29 -7 0 10 -53 41 -67 39 -4 0 -18 -5 -30 -11z"/>
<path d="M2556 5309 c-17 -13 -26 -30 -26 -48 0 -24 -5 -30 -30 -34 -38 -8
-64 -55 -51 -90 16 -43 49 -57 126 -57 115 0 115 1 115 81 0 78 -17 129 -51
153 -31 21 -51 20 -83 -5z"/>
<path d="M9817 5281 c-23 -27 -36 -70 -51 -158 -5 -32 -4 -33 46 -48 28 -8 76
-15 105 -15 44 0 58 5 78 25 14 13 25 31 25 39 0 33 -24 67 -51 73 -25 5 -27
9 -22 35 4 22 0 35 -17 53 -34 36 -81 34 -113 -4z"/>
<path d="M3629 5261 c-35 -28 -31 -92 9 -163 47 -82 49 -83 120 -47 103 51
140 121 91 170 -16 16 -30 20 -62 17 -32 -3 -45 1 -63 19 -28 28 -64 29 -95 4z"/>
<path d="M6360 5233 c-15 -19 -20 -36 -16 -55 4 -23 2 -28 -14 -28 -23 0 -60
-45 -60 -75 0 -12 12 -32 26 -46 21 -19 36 -24 77 -23 50 1 120 16 143 31 16
11 -1 113 -26 164 -34 65 -92 80 -130 32z"/>
<path d="M7294 5241 c-31 -19 -81 -77 -104 -121 -12 -23 -10 -27 31 -63 56
-50 93 -69 137 -70 63 -2 95 72 52 118 -19 20 -19 24 -6 49 18 36 5 79 -30 95
-34 15 -44 14 -80 -8z"/>
<path d="M4191 5224 c-25 -32 -26 -52 -5 -83 15 -21 15 -23 -5 -37 -15 -11
-21 -26 -21 -54 0 -99 123 -89 223 17 l27 29 -31 47 c-69 104 -144 137 -188
81z"/>
<path d="M6095 5230 c-22 -11 -56 -34 -75 -50 l-35 -29 24 -45 c30 -57 84
-114 117 -122 58 -15 108 41 87 97 -10 26 -9 33 8 50 25 25 24 74 -1 99 -26
26 -74 26 -125 0z"/>
<path d="M4505 5215 c-29 -28 -32 -61 -9 -93 14 -20 14 -24 0 -44 -50 -71 30
-137 112 -94 15 8 49 37 75 65 l48 52 -32 41 c-39 48 -113 98 -146 98 -13 0
-35 -11 -48 -25z"/>
<path d="M7810 5210 c-11 -11 -20 -33 -20 -50 0 -31 30 -70 53 -70 9 0 11 -12
9 -39 -3 -32 1 -42 23 -60 15 -11 37 -21 47 -21 34 0 85 61 102 121 26 94 27
91 -34 116 -72 29 -152 31 -180 3z"/>
<path d="M9513 5220 c-12 -5 -26 -18 -32 -29 -14 -26 -13 -126 3 -176 l12 -40
50 3 c68 4 141 29 159 55 35 50 4 117 -54 117 -22 0 -31 6 -40 29 -7 15 -24
33 -37 40 -29 13 -31 13 -61 1z"/>
<path d="M5175 5198 c-54 -39 -97 -82 -110 -112 -18 -41 -2 -81 37 -97 26 -11
35 -10 59 3 26 15 29 15 45 -3 21 -23 76 -25 98 -3 28 27 30 63 8 108 -20 42
-88 126 -100 126 -4 0 -20 -10 -37 -22z"/>
<path d="M8228 5198 c-20 -5 -48 -20 -62 -33 -50 -46 -22 -125 44 -125 20 0
30 -5 30 -15 0 -25 47 -65 75 -65 14 0 37 11 50 25 28 28 33 86 14 175 l-11
50 -51 -1 c-29 -1 -69 -5 -89 -11z"/>
<path d="M8594 5190 c-29 -11 -124 -120 -124 -141 0 -17 74 -85 117 -108 35
-18 88 -14 108 9 23 25 24 74 1 98 -15 17 -15 22 -2 47 11 20 12 34 4 56 -15
45 -54 59 -104 39z"/>
<path d="M5669 5162 c-41 -34 -18 -122 32 -122 15 0 17 -6 13 -28 -11 -56 51
-99 111 -76 21 9 50 67 64 132 16 79 16 79 -43 96 -74 22 -148 21 -177 -2z"/>
<path d="M3959 5147 c-24 -19 -39 -52 -32 -75 4 -18 1 -22 -20 -22 -55 0 -76
-79 -31 -121 21 -20 35 -23 82 -22 32 0 76 6 100 12 39 11 42 14 42 46 0 134
-76 232 -141 182z"/>
<path d="M2792 5127 c-12 -13 -22 -35 -22 -50 0 -18 -5 -27 -15 -27 -25 0 -65
-47 -65 -75 0 -14 11 -37 25 -50 20 -21 33 -25 87 -25 35 0 80 5 102 11 l39
11 -6 68 c-6 69 -27 125 -56 147 -26 20 -66 15 -89 -10z"/>
<path d="M3143 5140 c-85 -17 -123 -50 -123 -108 0 -38 28 -62 73 -62 29 0 37
-4 37 -18 0 -50 82 -70 120 -30 25 27 27 101 5 176 -17 57 -22 59 -112 42z"/>
<path d="M8973 5138 c-13 -6 -23 -14 -23 -17 0 -3 -4 -12 -9 -20 -7 -10 -13
-11 -31 -1 -17 9 -28 9 -51 -1 -86 -35 -54 -124 66 -180 33 -16 65 -29 72 -29
18 0 83 138 83 175 0 59 -57 98 -107 73z"/>
<path d="M9257 5127 c-31 -10 -62 -62 -72 -122 -3 -22 -9 -52 -11 -67 -5 -25
-2 -28 47 -42 29 -9 77 -16 106 -16 45 0 58 4 80 26 20 20 24 31 19 57 -6 33
-38 67 -62 67 -10 0 -13 7 -9 23 7 26 -24 72 -52 79 -10 3 -30 1 -46 -5z"/>
<path d="M6790 5097 l-44 -12 2 -50 c7 -114 41 -175 98 -175 43 0 74 30 74 70
0 20 5 30 15 30 23 0 65 46 65 70 0 12 -13 35 -29 51 -26 25 -37 29 -83 28
-29 0 -73 -6 -98 -12z"/>
<path d="M4886 5037 c-18 -18 -31 -22 -63 -19 -32 3 -46 -1 -62 -17 -50 -50
-12 -115 98 -170 73 -37 69 -39 121 63 37 72 38 109 5 141 -30 31 -69 32 -99
2z"/>
<path d="M3365 5025 c-14 -13 -25 -31 -25 -39 0 -31 21 -67 43 -75 20 -8 23
-15 19 -40 -11 -77 70 -110 128 -53 27 28 79 166 67 179 -3 3 -35 16 -72 29
-86 31 -129 31 -160 -1z"/>
<path d="M6568 5034 c-29 -15 -45 -52 -34 -79 3 -10 -1 -15 -12 -15 -23 0 -62
-36 -63 -58 -3 -34 3 -47 27 -69 30 -27 90 -30 169 -9 l50 13 -1 52 c-4 124
-68 202 -136 165z"/>
<path d="M5405 5030 c-4 -7 -10 -51 -12 -99 -5 -77 -3 -89 17 -113 29 -38 80
-39 109 -2 12 15 21 33 21 40 0 9 11 14 30 14 36 0 70 31 70 63 0 32 -27 67
-64 82 -48 20 -162 30 -171 15z"/>
<path d="M7510 4956 c0 -96 12 -131 51 -152 46 -24 102 10 102 61 0 21 4 25
28 25 37 0 73 44 64 80 -13 53 -37 65 -145 68 l-100 4 0 -86z"/>
<path d="M10130 5017 c-14 -7 -29 -22 -34 -34 -8 -17 -16 -20 -42 -16 -26 4
-38 0 -58 -20 -43 -44 -28 -100 36 -133 44 -23 128 -46 143 -40 20 7 55 112
55 165 0 68 -47 105 -100 78z"/>
<path d="M2428 4993 c-15 -16 -40 -57 -57 -93 -36 -75 -36 -73 54 -116 62 -30
135 -32 158 -6 33 36 8 122 -35 122 -9 0 -9 3 0 12 19 19 14 66 -8 88 -30 30
-80 26 -112 -7z"/>
<path d="M5952 4965 c-70 -80 -89 -142 -54 -184 23 -30 75 -31 106 -2 20 19
24 20 36 6 35 -42 110 0 110 62 0 31 -8 44 -48 82 -27 25 -62 54 -79 64 l-31
17 -40 -45z"/>
<path d="M7037 4982 c-21 -23 -22 -85 -2 -102 13 -11 13 -15 0 -33 -34 -48 -4
-117 50 -117 15 0 38 6 53 14 28 14 122 109 122 122 0 18 -57 79 -98 105 -53
33 -101 37 -125 11z"/>
<path d="M8064 4944 c-15 -31 -30 -80 -32 -109 -4 -47 -2 -54 23 -73 15 -12
34 -22 41 -22 24 0 64 23 69 41 5 13 14 16 43 12 81 -10 113 78 48 135 -30 26
-129 72 -156 72 -5 0 -21 -25 -36 -56z"/>
<path d="M9780 4969 c-37 -15 -70 -50 -70 -74 0 -36 37 -75 71 -75 24 0 29 -4
29 -24 0 -27 42 -66 71 -66 10 0 30 10 45 23 22 19 28 34 32 80 2 31 1 77 -2
102 l-7 45 -72 -1 c-40 0 -83 -5 -97 -10z"/>
<path d="M4263 4910 c-33 -17 -68 -39 -78 -50 -17 -18 -16 -21 5 -66 34 -70
90 -124 128 -124 43 0 72 31 72 74 0 19 -4 38 -10 41 -5 3 1 16 15 28 36 33
37 75 3 107 -30 28 -64 25 -135 -10z"/>
<path d="M5130 4913 c-20 -25 -22 -37 -17 -114 2 -48 8 -92 12 -99 6 -9 26
-11 73 -6 73 8 129 28 148 54 33 43 -3 112 -59 112 -20 0 -27 5 -27 20 0 59
-91 82 -130 33z"/>
<path d="M6233 4922 c-37 -28 -53 -118 -37 -201 l7 -31 76 0 c90 0 141 21 156
63 13 39 -10 79 -53 92 -21 6 -32 15 -32 28 0 25 -45 67 -72 67 -13 0 -33 -8
-45 -18z"/>
<path d="M3682 4907 c-27 -32 -62 -125 -62 -164 0 -77 75 -106 125 -49 17 18
29 22 58 18 48 -5 77 18 77 63 0 46 -31 80 -104 115 -72 34 -79 35 -94 17z"/>
<path d="M7846 4901 c-33 -22 -106 -110 -106 -128 0 -16 83 -87 124 -107 47
-22 73 -20 101 9 30 29 32 68 5 95 -19 19 -19 22 -5 43 51 73 -39 140 -119 88z"/>
<path d="M8405 4899 c-22 -18 -26 -28 -23 -60 2 -26 -1 -39 -9 -39 -21 0 -53
-42 -53 -70 0 -44 33 -70 90 -70 44 0 143 30 163 49 15 15 -34 144 -68 178
-38 38 -62 41 -100 12z"/>
<path d="M9575 4884 c-108 -54 -150 -132 -96 -176 25 -19 76 -24 86 -8 4 6 18
-2 35 -20 33 -35 57 -38 94 -9 45 35 31 116 -36 212 -11 15 -22 27 -26 27 -4
0 -29 -12 -57 -26z"/>
<path d="M4507 4880 c-21 -17 -27 -30 -27 -61 0 -40 31 -114 67 -157 16 -21
22 -22 48 -12 130 49 193 158 116 199 -26 14 -68 14 -77 0 -4 -7 -14 -2 -28
14 -30 37 -66 43 -99 17z"/>
<path d="M3094 4880 c-32 -13 -48 -61 -35 -103 18 -54 90 -149 108 -143 35 14
123 79 139 104 24 37 22 81 -5 104 -26 20 -71 24 -89 6 -8 -8 -16 -6 -29 10
-21 25 -60 35 -89 22z"/>
<path d="M7318 4870 c-30 -23 -68 -107 -71 -157 -2 -35 0 -37 53 -59 64 -27
136 -31 168 -8 41 28 21 124 -26 124 -7 0 -9 13 -5 34 4 28 1 39 -20 60 -31
31 -65 33 -99 6z"/>
<path d="M8755 4883 c-11 -3 -46 -14 -77 -25 -56 -20 -57 -21 -51 -52 21 -112
80 -193 132 -181 39 9 63 43 59 82 -2 20 0 33 7 33 19 0 55 45 55 69 0 35 -17
58 -51 70 -33 11 -41 12 -74 4z"/>
<path d="M9024 4855 c-27 -14 -62 -36 -77 -49 l-29 -23 26 -51 c14 -28 42 -67
62 -87 30 -30 42 -36 71 -33 26 2 42 11 57 31 18 24 19 31 8 60 -10 26 -10 34
1 42 18 13 37 49 37 70 0 26 -46 65 -78 65 -15 0 -50 -11 -78 -25z"/>
<path d="M5749 4822 c-20 -17 -25 -17 -50 -5 -34 17 -74 8 -94 -20 -20 -29
-19 -56 4 -94 21 -33 115 -113 133 -113 19 0 98 93 114 135 19 50 7 91 -31
105 -37 14 -50 13 -76 -8z"/>
<path d="M6767 4822 c-24 -26 -22 -87 2 -104 17 -12 17 -16 5 -33 -8 -10 -14
-29 -14 -42 0 -31 42 -73 72 -73 36 0 91 43 132 103 l38 55 -42 39 c-80 72
-158 94 -193 55z"/>
<path d="M2739 4795 c-66 -36 -50 -135 22 -135 24 0 28 -4 31 -32 4 -41 44
-72 82 -62 51 12 78 90 68 194 l-5 50 -86 0 c-54 -1 -96 -6 -112 -15z"/>
<path d="M3976 4769 c-68 -80 -85 -151 -44 -189 28 -26 66 -26 94 1 18 17 26
19 42 10 33 -17 67 -13 90 12 43 46 21 101 -68 168 -28 21 -58 39 -65 39 -7 0
-29 -18 -49 -41z"/>
<path d="M9282 4765 c-22 -19 -52 -53 -67 -75 l-28 -41 29 -31 c45 -47 114
-88 151 -88 63 0 97 76 53 120 -19 19 -19 22 -5 43 21 31 19 54 -10 82 -35 36
-76 33 -123 -10z"/>
<path d="M4936 4759 c-58 -9 -97 -35 -110 -73 -13 -36 19 -80 61 -84 25 -3 32
-9 37 -33 4 -21 15 -34 37 -43 40 -17 64 -11 90 23 18 23 20 37 17 114 -4 113
-10 117 -132 96z"/>
<path d="M2283 4704 c-14 -32 -28 -79 -31 -105 -4 -41 -1 -51 21 -73 15 -14
37 -26 49 -26 30 0 68 26 68 47 0 12 7 14 33 9 68 -13 113 62 73 120 -15 21
-106 66 -159 79 -25 7 -29 4 -54 -51z"/>
<path d="M5433 4698 c-30 -33 -36 -79 -23 -160 l12 -71 73 6 c101 7 165 46
165 98 0 33 -39 69 -76 69 -27 0 -34 4 -34 20 0 54 -79 79 -117 38z"/>
<path d="M6490 4696 l-45 -12 3 -50 c5 -69 19 -117 43 -148 40 -51 129 -23
129 42 0 22 7 30 30 39 58 22 61 106 4 132 -31 14 -106 13 -164 -3z"/>
<path d="M7546 4679 c-18 -89 2 -187 42 -208 47 -25 103 3 105 52 2 22 7 27
28 27 50 0 84 63 59 109 -15 29 -84 51 -159 51 l-68 0 -7 -31z"/>
<path d="M8122 4697 c-22 -27 -54 -114 -55 -153 -2 -54 23 -84 70 -84 32 0 73
28 73 50 0 7 6 7 20 0 42 -22 100 16 100 66 0 35 -39 75 -104 105 -67 32 -88
35 -104 16z"/>
<path d="M5936 4679 c-18 -14 -26 -30 -26 -52 0 -38 7 -50 37 -66 18 -9 21
-17 16 -44 -7 -45 22 -80 66 -80 44 0 86 43 111 115 31 89 30 92 -51 122 -85
31 -118 33 -153 5z"/>
<path d="M3415 4650 c-27 -16 -63 -40 -79 -54 l-29 -24 26 -44 c50 -82 93
-118 143 -118 52 0 84 55 60 102 -13 24 -12 28 5 44 19 17 26 69 11 90 -10 16
-48 34 -69 34 -10 0 -40 -14 -68 -30z"/>
<path d="M9948 4663 c-24 -4 -28 -9 -28 -36 -1 -29 -2 -30 -12 -12 -33 58 -84
59 -166 5 -84 -57 -90 -64 -68 -103 57 -105 148 -155 196 -107 22 22 27 79 8
98 -9 9 -8 15 4 24 8 7 20 22 26 33 10 18 11 17 12 -13 0 -40 24 -101 48 -118
43 -33 112 3 112 59 0 22 5 27 24 27 27 0 66 42 66 71 0 10 -11 30 -24 46 -22
25 -30 28 -97 29 -41 1 -86 0 -101 -3z"/>
<path d="M4681 4636 c-17 -18 -22 -33 -19 -55 4 -25 1 -31 -13 -31 -21 0 -59
-45 -59 -70 0 -28 38 -68 71 -75 29 -7 149 17 178 34 29 18 -26 188 -68 211
-32 17 -66 11 -90 -14z"/>
<path d="M5206 4639 c-18 -14 -26 -30 -26 -52 -1 -25 -8 -36 -33 -52 -25 -16
-33 -28 -35 -56 -6 -73 68 -97 190 -63 55 16 58 18 58 49 0 86 -60 195 -108
195 -11 0 -31 -9 -46 -21z"/>
<path d="M7025 4639 c-28 -17 -35 -29 -35 -66 0 -31 16 -56 42 -66 10 -4 11
-7 1 -18 -19 -19 -16 -53 8 -83 45 -57 121 -17 174 94 l29 62 -24 18 c-70 53
-159 80 -195 59z"/>
<path d="M4366 4600 c-19 -17 -49 -53 -66 -81 l-33 -50 24 -26 c36 -38 120
-83 157 -83 43 0 72 30 72 74 0 24 -7 39 -21 49 -17 12 -19 19 -10 35 17 32
13 70 -9 92 -29 29 -73 25 -114 -10z"/>
<path d="M8852 4604 c-18 -7 -32 -20 -32 -29 0 -12 -4 -14 -19 -5 -80 42 -146
-47 -87 -118 30 -34 141 -96 157 -86 19 12 69 97 80 138 21 77 -31 129 -99
100z"/>
<path d="M3084 4585 c-27 -14 -62 -36 -78 -49 l-28 -24 26 -48 c47 -85 90
-124 137 -124 48 0 89 76 58 107 -9 9 -5 20 15 43 32 39 33 64 1 95 -31 32
-68 32 -131 0z"/>
<path d="M8522 4595 c-16 -7 -33 -23 -37 -34 -5 -16 -12 -20 -30 -15 -23 6
-64 -10 -77 -30 -19 -28 -8 -74 26 -103 32 -29 159 -73 172 -60 13 13 54 140
54 166 0 32 -31 76 -58 83 -11 3 -33 0 -50 -7z"/>
<path d="M6262 4580 c-32 -20 -86 -114 -94 -164 -4 -26 91 -76 157 -83 38 -5
50 -2 70 17 14 13 25 35 25 50 0 31 -26 70 -47 70 -10 0 -13 5 -8 18 16 39 15
50 -7 75 -32 36 -58 40 -96 17z"/>
<path d="M2582 4574 c-12 -8 -22 -26 -22 -40 0 -21 -5 -24 -33 -24 -40 0 -67
-26 -67 -64 0 -61 44 -88 162 -100 l66 -7 11 51 c16 76 14 131 -9 168 -16 26
-26 32 -53 32 -18 0 -43 -7 -55 -16z"/>
<path d="M7871 4580 c-54 -13 -86 -42 -89 -83 -4 -44 25 -77 66 -77 21 0 30
-8 42 -33 19 -40 59 -56 94 -38 45 25 57 88 35 191 l-11 50 -51 -1 c-29 -1
-67 -5 -86 -9z"/>
<path d="M3656 4558 c-23 -33 -20 -82 10 -141 50 -102 56 -104 154 -45 69 42
97 87 80 127 -15 37 -62 58 -93 44 -19 -9 -27 -7 -44 13 -29 32 -85 33 -107 2z"/>
<path d="M9511 4538 c-57 -55 -81 -95 -81 -134 0 -57 67 -90 111 -56 21 18 27
18 44 6 50 -37 115 -2 115 63 0 31 -9 45 -63 100 -35 35 -68 63 -73 63 -5 0
-29 -19 -53 -42z"/>
<path d="M9047 4538 c-18 -18 -46 -52 -62 -76 l-28 -43 24 -25 c39 -42 107
-85 144 -91 27 -4 38 0 59 20 31 31 33 65 7 99 -13 16 -17 29 -10 39 5 8 9 28
9 45 0 69 -84 88 -143 32z"/>
<path d="M7323 4530 c-37 -12 -63 -44 -63 -78 0 -28 42 -72 70 -72 15 0 20 -6
20 -28 0 -48 40 -73 93 -59 40 11 66 73 67 159 0 37 -4 69 -9 72 -18 11 -147
15 -178 6z"/>
<path d="M5745 4505 c-27 -26 -31 -54 -14 -87 9 -16 7 -24 -10 -42 -45 -48
-13 -116 55 -116 41 0 61 9 127 58 52 40 55 50 30 90 -72 114 -138 148 -188
97z"/>
<path d="M4092 4499 c-69 -27 -122 -77 -122 -116 0 -43 39 -77 82 -70 26 4 37
0 53 -19 31 -36 67 -40 101 -11 23 20 29 33 28 65 -2 47 -57 172 -76 171 -7 0
-37 -9 -66 -20z"/>
<path d="M6685 4495 c-29 -28 -30 -43 -11 -90 15 -34 101 -135 117 -135 4 0
35 25 68 56 74 68 93 113 64 153 -23 30 -82 41 -105 18 -12 -13 -17 -12 -37 4
-32 26 -67 24 -96 -6z"/>
<path d="M2810 4465 c-27 -28 -36 -101 -23 -175 8 -40 12 -45 38 -48 53 -6
133 9 167 31 46 31 51 85 12 116 -15 11 -37 21 -50 21 -17 0 -24 6 -24 20 0
29 -35 60 -68 60 -17 0 -38 -10 -52 -25z"/>
<path d="M2187 4451 c-24 -29 -44 -92 -49 -160 -3 -32 -1 -34 42 -47 99 -31
189 -14 205 36 11 34 -14 80 -46 87 -24 5 -27 9 -23 32 4 18 -1 35 -16 54 -30
38 -79 37 -113 -2z"/>
<path d="M4970 4452 c-19 -9 -56 -44 -83 -77 l-48 -60 55 -52 c65 -61 114 -81
156 -63 34 14 51 54 38 90 -5 13 -14 27 -20 31 -7 4 -7 13 1 27 39 74 -25 142
-99 104z"/>
<path d="M9287 4429 c-29 -17 -76 -134 -77 -191 0 -31 153 -68 202 -49 65 25
72 101 12 131 -24 12 -28 20 -26 45 6 57 -59 94 -111 64z"/>
<path d="M5550 4423 c-23 -9 -79 -64 -110 -109 l-29 -41 32 -31 c85 -81 163
-105 202 -62 24 26 23 74 0 100 -14 16 -16 23 -7 32 16 16 15 70 0 91 -14 18
-64 30 -88 20z"/>
<path d="M6524 4405 c-17 -18 -24 -34 -22 -53 2 -21 -2 -28 -18 -30 -55 -8
-77 -89 -35 -123 33 -27 77 -31 156 -17 l70 14 -3 59 c-6 144 -80 218 -148
150z"/>
<path d="M8227 4409 c-83 -19 -117 -51 -117 -107 0 -38 28 -62 73 -62 30 0 37
-4 37 -19 0 -25 37 -51 72 -51 64 0 87 84 53 198 -15 49 -18 52 -48 51 -18 -1
-49 -5 -70 -10z"/>
<path d="M7674 4388 c-23 -13 -58 -37 -79 -55 l-38 -32 26 -44 c39 -66 100
-117 140 -117 55 0 88 54 63 102 -13 24 -12 28 5 44 25 23 25 78 -1 104 -26
26 -66 25 -116 -2z"/>
<path d="M3255 4365 c-26 -25 -31 -50 -16 -74 6 -10 0 -21 -20 -38 -28 -24
-36 -53 -23 -88 10 -26 59 -46 96 -38 35 6 143 57 152 71 9 15 -43 125 -75
159 -40 41 -79 44 -114 8z"/>
<path d="M4641 4374 c-34 -24 -51 -75 -51 -152 l0 -69 31 -7 c60 -12 154 -7
177 10 54 38 43 118 -18 131 -24 4 -30 11 -30 33 0 31 -37 70 -66 70 -11 0
-30 -7 -43 -16z"/>
<path d="M5246 4349 c-28 -22 -58 -74 -82 -141 l-13 -38 60 -30 c82 -42 136
-48 172 -20 39 31 38 81 -3 111 -24 18 -27 25 -19 41 8 14 7 28 -2 49 -21 52
-68 63 -113 28z"/>
<path d="M6000 4350 c-22 -22 -27 -79 -8 -98 9 -9 7 -17 -10 -35 -47 -50 -14
-117 57 -117 30 0 52 10 100 45 34 25 64 52 67 60 7 18 -44 92 -91 133 -42 37
-85 42 -115 12z"/>
<path d="M8699 4355 c-108 -40 -158 -88 -145 -141 8 -32 49 -58 83 -51 21 4
33 -2 54 -24 32 -34 67 -37 100 -10 19 16 24 29 24 68 -1 52 -49 174 -69 172
-6 0 -27 -6 -47 -14z"/>
<path d="M6905 4327 c-25 -25 -36 -49 -49 -106 -9 -41 -13 -77 -9 -81 18 -16
110 -40 155 -40 39 0 54 5 73 25 14 13 25 31 25 39 0 33 -21 68 -48 77 -24 8
-28 14 -24 39 3 21 -3 35 -21 54 -35 35 -62 33 -102 -7z"/>
<path d="M7160 4305 c-28 -30 -31 -88 -11 -172 l13 -53 42 0 c141 0 230 87
160 157 -20 20 -32 24 -55 19 -24 -5 -29 -2 -29 14 0 27 -39 60 -70 60 -15 0
-36 -11 -50 -25z"/>
<path d="M7926 4279 c-54 -60 -73 -111 -57 -152 18 -46 98 -59 120 -20 6 12
12 13 29 4 79 -42 148 37 99 113 -21 31 -114 106 -132 106 -7 0 -34 -23 -59
-51z"/>
<path d="M9822 4303 c-62 -25 -63 -26 -56 -57 20 -96 79 -176 130 -176 28 0
74 41 74 65 0 9 -5 25 -10 36 -8 15 -7 19 4 19 20 0 56 48 56 75 0 12 -10 31
-23 43 -32 30 -95 28 -175 -5z"/>
<path d="M3520 4263 c-17 -21 -42 -64 -55 -95 l-24 -58 42 -24 c119 -70 217
-60 217 20 0 32 -28 74 -49 74 -5 0 -4 13 2 30 16 42 -15 84 -65 88 -31 3 -40
-2 -68 -35z"/>
<path d="M3798 4284 c-45 -14 -48 -17 -48 -47 0 -47 26 -129 51 -161 41 -53
129 -23 129 44 0 23 6 33 24 40 51 19 62 86 20 119 -32 25 -104 27 -176 5z"/>
<path d="M4308 4283 c-38 -43 -31 -96 25 -190 l30 -52 41 17 c129 50 181 127
125 183 -17 17 -29 20 -62 16 -34 -5 -43 -2 -59 19 -24 29 -77 33 -100 7z"/>
<path d="M8902 4257 c-12 -13 -22 -36 -22 -52 0 -34 33 -103 71 -148 l27 -32
56 29 c103 52 144 128 96 176 -21 21 -84 28 -95 11 -3 -5 -16 1 -30 15 -31 31
-75 31 -103 1z"/>
<path d="M9518 4213 c-11 -27 -23 -76 -26 -109 -4 -53 -1 -65 17 -83 12 -12
30 -21 41 -21 32 0 70 22 76 44 4 18 11 21 43 18 30 -3 43 1 60 19 57 62 -13
137 -162 173 -25 6 -29 3 -49 -41z"/>
<path d="M6281 4210 c-70 -46 -98 -91 -81 -134 15 -41 80 -62 108 -34 9 9 16
5 32 -15 13 -16 31 -27 46 -27 60 0 91 46 74 108 -14 52 -77 142 -99 142 -10
0 -46 -18 -80 -40z"/>
<path d="M8418 4197 c-64 -47 -88 -82 -88 -124 0 -51 55 -83 102 -59 24 13 28
12 44 -5 17 -19 69 -26 90 -11 21 14 36 55 30 84 -8 39 -93 158 -113 158 -4 0
-34 -19 -65 -43z"/>
<path d="M3027 4215 c-9 -8 -17 -20 -19 -26 -3 -8 -11 -7 -29 1 -52 24 -109
-27 -95 -85 4 -15 18 -38 33 -51 26 -24 122 -74 142 -74 15 0 60 74 78 127 25
72 -1 123 -62 123 -18 0 -40 -7 -48 -15z"/>
<path d="M7465 4196 c-25 -25 -42 -74 -52 -148 -5 -45 -4 -48 23 -58 102 -39
200 -30 218 21 14 41 0 79 -34 92 -25 9 -30 17 -30 44 0 67 -76 98 -125 49z"/>
<path d="M2574 4164 c-15 -76 -10 -151 12 -181 37 -49 115 -36 130 22 4 17 13
25 28 25 48 1 84 56 66 100 -16 39 -67 61 -155 67 l-74 6 -7 -39z"/>
<path d="M4100 4180 c-11 -11 -20 -31 -20 -44 0 -19 -4 -22 -24 -19 -17 4 -33
-3 -50 -20 -42 -42 -31 -94 25 -123 42 -21 173 -31 184 -14 11 18 19 143 11
174 -15 61 -85 87 -126 46z"/>
<path d="M5822 4170 c-12 -5 -27 -21 -32 -35 -8 -20 -16 -25 -43 -25 -39 0
-77 -34 -77 -69 0 -13 15 -38 33 -56 25 -25 49 -36 106 -49 84 -19 82 -21 106
58 23 76 20 132 -10 161 -25 26 -45 30 -83 15z"/>
<path d="M6672 4157 c-12 -13 -22 -29 -22 -35 0 -7 -15 -12 -35 -12 -70 0
-100 -73 -50 -122 26 -26 119 -58 168 -58 21 0 30 7 38 28 19 48 32 130 25
157 -16 62 -83 85 -124 42z"/>
<path d="M2140 4156 c-52 -20 -110 -56 -110 -69 0 -28 60 -135 89 -160 39 -33
60 -34 96 -6 23 19 26 28 23 62 -3 33 1 44 24 68 34 34 35 62 3 94 -27 28 -69
32 -125 11z"/>
<path d="M4825 4150 c-10 -16 -8 -154 4 -182 14 -36 54 -62 83 -53 35 11 58
35 58 62 0 13 6 23 15 23 29 0 64 23 75 50 15 36 -3 74 -45 95 -37 17 -180 21
-190 5z"/>
<path d="M9180 4110 c-36 -36 -15 -120 31 -120 16 0 18 -5 13 -25 -13 -52 43
-102 94 -84 37 13 55 39 76 109 28 92 24 104 -37 123 -75 24 -152 22 -177 -3z"/>
<path d="M5099 4091 c-21 -21 -29 -39 -29 -63 0 -39 27 -149 40 -162 5 -5 41
-1 84 8 123 28 170 93 110 153 -20 20 -32 24 -55 19 -22 -4 -29 -2 -29 10 0
22 -46 64 -70 64 -12 0 -35 -13 -51 -29z"/>
<path d="M5486 4080 c-107 -34 -146 -101 -90 -157 20 -20 32 -24 55 -19 24 5
31 2 40 -18 23 -50 94 -56 123 -10 22 32 19 87 -7 159 -26 70 -34 73 -121 45z"/>
<path d="M4655 4066 c-91 -29 -135 -65 -135 -113 0 -46 32 -76 75 -71 28 3 36
0 44 -19 13 -28 56 -46 88 -38 31 7 56 60 50 104 -3 20 -15 62 -27 94 -23 62
-28 64 -95 43z"/>
<path d="M7825 4075 c-5 -2 -36 -11 -67 -20 -68 -18 -70 -25 -38 -128 23 -73
55 -107 101 -107 37 0 73 44 65 82 -4 21 -2 28 9 28 48 0 74 90 36 124 -18 17
-85 30 -106 21z"/>
<path d="M8776 4059 c-14 -11 -26 -26 -26 -34 0 -8 -12 -13 -35 -12 -46 1 -75
-26 -75 -70 0 -57 44 -86 183 -119 24 -5 29 -2 42 29 40 96 41 172 2 207 -27
26 -58 25 -91 -1z"/>
<path d="M6934 4041 c-34 -16 -65 -34 -69 -41 -11 -17 61 -155 91 -174 57 -38
140 11 118 71 -8 22 -5 31 19 54 32 33 35 67 7 97 -30 32 -90 29 -166 -7z"/>
<path d="M8090 4048 c-19 -5 -45 -19 -57 -31 -46 -42 -16 -120 45 -120 27 0
32 -4 32 -23 0 -25 43 -64 71 -64 30 0 69 42 76 82 3 20 2 66 -2 102 l-7 66
-61 -1 c-34 0 -78 -5 -97 -11z"/>
<path d="M3265 4020 c-54 -13 -135 -52 -135 -66 0 -33 46 -132 76 -161 37 -38
71 -42 103 -12 18 17 22 30 19 60 -2 22 0 39 5 39 16 0 57 49 57 69 0 27 -39
68 -70 74 -14 2 -38 1 -55 -3z"/>
<path d="M6130 4020 c-88 -16 -140 -51 -140 -96 0 -37 37 -74 76 -74 26 0 34
-4 34 -18 0 -44 78 -73 114 -42 33 26 40 82 22 164 -19 84 -15 82 -106 66z"/>
<path d="M7300 4007 c-14 -7 -29 -22 -35 -34 -7 -16 -20 -23 -49 -25 -52 -4
-83 -42 -69 -84 15 -47 73 -79 180 -100 30 -6 31 -4 52 50 30 80 28 150 -4
181 -27 28 -39 30 -75 12z"/>
<path d="M3726 3959 c-36 -120 -10 -203 63 -197 28 2 40 10 56 35 16 25 27 32
52 33 60 0 89 71 50 119 -19 23 -90 50 -150 57 l-55 7 -16 -54z"/>
<path d="M4281 3984 c-26 -33 -26 -54 -1 -87 17 -22 18 -26 5 -37 -22 -18 -19
-76 5 -100 24 -24 60 -26 99 -5 28 14 121 112 121 127 0 15 -58 73 -99 100
-58 36 -102 37 -130 2z"/>
<path d="M9675 3975 c-30 -29 -33 -75 -6 -99 18 -16 18 -19 3 -45 -31 -54 17
-112 83 -102 33 5 70 37 111 97 l39 56 -45 40 c-51 46 -109 78 -140 78 -12 0
-32 -11 -45 -25z"/>
<path d="M2902 3950 c-13 -12 -22 -33 -22 -50 0 -22 -5 -30 -18 -30 -27 0 -62
-42 -62 -73 0 -32 29 -64 66 -73 28 -7 138 0 167 11 37 15 9 188 -36 220 -30
21 -69 19 -95 -5z"/>
<path d="M3477 3926 c-53 -44 -87 -95 -87 -133 0 -48 90 -84 120 -48 12 14 15
13 35 -5 36 -34 97 -21 115 25 14 38 -6 86 -61 148 -28 31 -54 57 -59 57 -4 0
-33 -20 -63 -44z"/>
<path d="M6381 3943 c-29 -23 -44 -94 -36 -165 l7 -57 40 -6 c75 -13 178 14
192 50 19 51 -11 105 -59 105 -20 0 -25 5 -25 25 0 56 -73 85 -119 48z"/>
<path d="M9027 3939 c-31 -23 -57 -101 -57 -166 0 -38 3 -45 28 -54 15 -6 59
-12 99 -13 63 -1 74 2 97 23 15 14 26 35 26 51 0 31 -33 70 -60 70 -16 0 -20
7 -20 34 0 25 -7 40 -26 55 -34 26 -54 26 -87 0z"/>
<path d="M8360 3925 c-19 -21 -22 -31 -17 -72 3 -26 17 -74 31 -105 l25 -56
44 13 c104 31 157 72 157 122 0 49 -32 77 -81 70 -27 -4 -39 -1 -39 7 0 22
-35 46 -67 46 -18 0 -38 -9 -53 -25z"/>
<path d="M4909 3872 c-64 -64 -80 -102 -58 -141 21 -38 63 -50 101 -28 26 15
31 15 44 2 21 -21 77 -19 96 3 25 29 28 52 12 90 -17 42 -101 132 -123 132 -8
0 -40 -26 -72 -58z"/>
<path d="M9447 3919 c-52 -12 -94 -36 -107 -58 -27 -52 9 -111 68 -111 25 0
32 -4 32 -19 0 -25 36 -51 70 -51 15 0 36 11 49 24 27 29 30 101 8 176 -12 42
-15 45 -47 47 -19 1 -52 -3 -73 -8z"/>
<path d="M5281 3860 c-73 -47 -102 -94 -83 -135 16 -35 56 -52 91 -38 24 9 31
7 49 -14 26 -30 74 -31 103 -2 17 17 20 30 17 68 -6 57 -68 161 -96 161 -11 0
-47 -18 -81 -40z"/>
<path d="M2573 3875 c-29 -21 -50 -79 -54 -154 -4 -64 -4 -64 26 -73 40 -11
144 -14 173 -4 12 4 29 21 38 37 19 38 3 77 -43 100 -18 9 -30 19 -26 22 3 4
0 20 -7 37 -20 49 -66 64 -107 35z"/>
<path d="M7475 3880 c-4 -6 -7 -45 -8 -88 -1 -101 25 -151 81 -152 28 0 72 42
72 70 0 14 6 20 24 20 37 0 69 32 69 68 0 38 -17 61 -60 79 -38 15 -169 18
-178 3z"/>
<path d="M1914 3869 c-3 -6 -9 -48 -11 -93 -5 -78 -4 -83 22 -114 16 -19 36
-32 50 -32 33 0 75 37 75 66 0 21 4 24 24 18 19 -4 32 1 50 20 50 49 21 115
-58 135 -57 14 -143 14 -152 0z"/>
<path d="M5690 3873 c-28 -11 -50 -36 -50 -60 0 -19 -5 -23 -30 -23 -55 0 -87
-59 -60 -109 5 -10 28 -26 50 -35 45 -18 165 -22 175 -6 4 6 9 43 12 83 6 84
-11 131 -53 147 -14 6 -26 10 -27 9 -1 0 -9 -3 -17 -6z"/>
<path d="M4092 3854 c-12 -8 -22 -22 -22 -31 0 -11 -5 -13 -17 -7 -49 21 -105
-11 -105 -60 0 -42 30 -76 95 -106 95 -44 97 -43 130 22 40 76 46 145 17 176
-24 26 -66 29 -98 6z"/>
<path d="M6677 3854 c-66 -36 -48 -134 26 -134 22 0 28 -4 23 -15 -17 -44 47
-95 97 -76 43 16 58 60 55 154 l-3 82 -85 2 c-61 2 -93 -2 -113 -13z"/>
<path d="M7939 3835 c-135 -48 -187 -112 -137 -170 24 -27 58 -35 91 -21 12 6
17 4 17 -7 0 -9 10 -23 22 -31 59 -41 124 4 115 80 -4 36 -47 138 -65 155 -4
4 -23 1 -43 -6z"/>
<path d="M5897 3813 c-24 -28 -30 -65 -13 -88 13 -18 12 -22 -6 -42 -44 -48
-14 -123 50 -123 34 0 98 33 146 75 l39 34 -33 50 c-64 100 -141 140 -183 94z"/>
<path d="M4549 3779 c-57 -22 -60 -105 -5 -130 19 -9 24 -19 23 -45 -2 -71 79
-101 128 -48 26 28 53 100 57 152 3 32 0 35 -43 52 -59 24 -127 32 -160 19z"/>
<path d="M8692 3775 c-34 -15 -55 -53 -45 -82 10 -29 35 -53 54 -53 13 0 17
-8 16 -36 -1 -27 5 -42 22 -55 71 -58 144 19 153 161 l3 45 -65 17 c-80 21
-96 21 -138 3z"/>
<path d="M6985 3753 c-38 -20 -54 -42 -55 -71 0 -30 43 -72 75 -72 20 0 25 -5
25 -24 0 -27 42 -66 71 -66 10 0 30 11 45 24 24 20 28 32 32 89 2 37 1 82 -2
102 l-7 35 -77 0 c-51 -1 -87 -6 -107 -17z"/>
<path d="M6223 3738 c-32 -16 -54 -70 -60 -152 l-6 -73 75 -12 c59 -9 82 -9
113 1 76 25 87 107 17 137 -23 11 -32 21 -32 38 0 28 -42 73 -67 72 -10 0 -28
-5 -40 -11z"/>
<path d="M8127 3697 c-36 -115 -15 -200 51 -200 36 0 72 27 72 54 0 14 6 17
33 13 67 -11 105 76 54 124 -26 25 -86 48 -149 57 l-44 7 -17 -55z"/>
<path d="M3812 3714 c-12 -8 -22 -24 -22 -34 0 -16 -5 -18 -35 -13 -29 5 -41
1 -60 -17 -30 -29 -32 -59 -4 -94 26 -33 58 -50 132 -69 l58 -15 21 46 c11 26
22 75 25 108 5 53 3 64 -16 83 -25 25 -68 27 -99 5z"/>
<path d="M4222 3690 c-39 -36 -18 -120 29 -120 17 0 20 -4 14 -29 -4 -21 0
-35 18 -57 19 -23 23 -37 19 -68 -4 -36 -1 -41 57 -96 84 -81 96 -83 143 -29
87 101 91 185 11 205 -17 5 -34 0 -55 -16 -27 -20 -32 -21 -46 -7 -11 12 -12
20 -5 29 15 18 43 116 43 148 0 23 -7 28 -53 43 -75 24 -147 22 -175 -3z"/>
<path d="M7277 3680 c-27 -31 -42 -104 -35 -170 3 -32 6 -35 48 -43 25 -4 69
-6 99 -4 44 3 59 9 78 31 13 15 23 35 23 45 0 29 -39 71 -66 71 -20 0 -23 4
-19 23 4 15 -1 32 -15 50 -31 39 -80 37 -113 -3z"/>
<path d="M9232 3657 c-27 -29 -28 -71 -3 -96 17 -17 18 -24 8 -50 -23 -61 23
-113 86 -97 31 7 97 73 123 123 l19 35 -43 38 c-80 72 -151 89 -190 47z"/>
<path d="M3145 3658 c-30 -16 -45 -39 -45 -68 0 -31 37 -70 68 -70 16 0 21 -7
24 -32 4 -43 48 -76 84 -62 48 16 67 55 72 145 4 62 1 83 -9 90 -20 12 -170
11 -194 -3z"/>
<path d="M1732 3637 c-12 -13 -22 -35 -22 -50 0 -20 -5 -27 -20 -27 -59 0 -82
-91 -32 -130 24 -20 36 -22 113 -17 48 2 92 8 99 12 17 10 4 138 -17 180 -31
59 -83 73 -121 32z"/>
<path d="M3479 3639 c-16 -16 -20 -30 -17 -56 4 -29 0 -36 -18 -43 -48 -19
-57 -77 -18 -117 23 -23 31 -25 77 -20 53 6 157 44 157 57 0 33 -46 144 -69
169 -35 37 -80 42 -112 10z"/>
<path d="M6549 3645 c-109 -40 -116 -54 -73 -145 36 -78 59 -100 106 -100 48
0 73 33 65 85 -4 25 -2 35 7 35 22 0 46 35 46 68 0 61 -69 87 -151 57z"/>
<path d="M7603 3596 c-56 -57 -63 -70 -63 -104 0 -26 7 -45 20 -57 25 -22 75
-24 97 -3 14 14 17 14 34 -3 26 -26 65 -24 94 6 29 28 32 70 9 105 -25 37
-107 120 -118 120 -6 0 -38 -29 -73 -64z"/>
<path d="M2902 3629 c-99 -43 -144 -101 -121 -153 15 -31 62 -52 91 -39 16 7
26 3 48 -19 34 -33 58 -35 94 -7 38 30 36 89 -8 171 -18 34 -39 64 -47 65 -8
1 -34 -7 -57 -18z"/>
<path d="M9517 3643 c-4 -3 -7 -43 -7 -87 0 -92 21 -141 66 -152 33 -8 78 23
82 58 3 21 10 27 38 33 26 4 39 14 50 38 21 44 6 83 -41 102 -35 15 -176 21
-188 8z"/>
<path d="M8419 3570 c-34 -112 -12 -180 58 -180 35 0 73 29 73 55 0 11 7 13
28 9 38 -8 82 28 82 65 0 59 -62 99 -177 117 l-42 6 -22 -72z"/>
<path d="M6819 3562 c-24 -16 -59 -48 -78 -71 l-33 -43 65 -64 c57 -55 71 -64
102 -64 20 0 45 4 55 10 27 14 35 65 15 96 -14 22 -14 27 0 46 22 32 19 65
-10 93 -32 32 -61 31 -116 -3z"/>
<path d="M9025 3585 c-5 -2 -28 -9 -51 -14 l-40 -11 7 -65 c8 -65 30 -125 52
-144 7 -5 24 -12 38 -16 37 -9 82 31 82 72 0 24 6 32 28 40 58 22 63 100 9
128 -26 13 -99 19 -125 10z"/>
<path d="M2493 3530 c-40 -24 -51 -61 -29 -96 17 -25 54 -46 69 -37 4 2 7 -8
7 -22 0 -31 41 -75 70 -75 61 0 90 53 90 163 l0 75 -31 6 c-64 13 -143 7 -176
-14z"/>
<path d="M7882 3543 c-7 -3 -20 -19 -28 -35 -19 -36 -14 -80 17 -164 23 -61
14 -59 110 -33 49 12 101 49 117 82 25 52 -30 110 -87 92 -15 -4 -21 -2 -21 9
0 34 -68 65 -108 49z"/>
<path d="M3990 3510 c-30 -30 -26 -92 13 -170 36 -74 37 -74 130 -33 68 30 97
63 97 108 0 52 -52 83 -102 61 -13 -6 -18 -4 -18 7 0 22 -39 47 -72 47 -16 0
-37 -9 -48 -20z"/>
<path d="M7057 3488 c-36 -28 -38 -99 -4 -120 8 -5 6 -12 -6 -26 -22 -24 -22
-75 1 -94 31 -27 54 -29 98 -7 40 19 124 105 124 126 0 6 -24 33 -54 62 -73
68 -122 86 -159 59z"/>
<path d="M8713 3437 c-34 -35 -63 -69 -63 -75 0 -37 123 -132 171 -132 61 0
95 75 54 120 -16 18 -16 20 -1 35 9 9 16 30 16 46 0 40 -32 69 -77 69 -31 0
-45 -9 -100 -63z"/>
<path d="M8213 3422 c-81 -74 -100 -133 -57 -176 20 -20 78 -21 94 -1 11 13
15 12 37 -5 68 -53 143 12 109 94 -15 35 -105 136 -122 136 -5 0 -32 -22 -61
-48z"/>
<path d="M1449 3401 c-16 -16 -31 -25 -35 -20 -9 15 -71 10 -88 -7 -44 -43
-23 -105 51 -152 79 -51 101 -56 124 -30 34 41 69 121 69 159 0 29 -6 43 -26
58 -36 28 -60 26 -95 -8z"/>
<path d="M3775 3405 c-14 -13 -25 -35 -25 -47 0 -17 -6 -24 -21 -25 -48 -4
-77 -58 -54 -102 18 -35 60 -51 134 -51 101 0 101 1 101 92 0 51 -5 89 -15
108 -28 54 -80 65 -120 25z"/>
<path d="M7385 3401 c-16 -10 -50 -39 -74 -64 l-44 -46 33 -42 c44 -54 106
-99 139 -99 63 0 98 63 62 111 -20 27 -20 27 0 44 10 10 19 31 19 47 0 61 -73
88 -135 49z"/>
<path d="M3082 3347 c-53 -69 -62 -89 -62 -131 0 -67 68 -100 115 -56 18 17
25 18 52 8 59 -22 114 27 99 88 -8 32 -66 88 -124 121 l-40 22 -40 -52z"/>
<path d="M9416 3367 c-31 -31 -33 -70 -6 -97 16 -16 18 -25 10 -40 -18 -33
-12 -77 12 -94 52 -37 113 -9 173 78 46 67 45 71 -36 128 -73 52 -119 59 -153
25z"/>
<path d="M120 3364 c-121 -81 -155 -183 -71 -212 22 -8 36 -7 56 4 24 12 30
12 52 -6 33 -25 54 -25 87 1 43 34 37 84 -22 161 -27 35 -55 64 -63 66 -8 1
-25 -5 -39 -14z"/>
<path d="M3463 3370 c-26 -11 -71 -70 -98 -130 l-19 -42 24 -20 c111 -90 230
-88 230 2 0 29 -6 43 -24 58 -17 13 -22 23 -15 33 16 25 10 59 -16 84 -25 26
-45 30 -82 15z"/>
<path d="M7695 3360 c-28 -11 -92 -83 -113 -127 l-17 -35 38 -33 c81 -70 163
-89 198 -46 25 31 24 67 -4 94 -20 21 -21 25 -8 49 19 32 1 80 -35 97 -29 13
-32 13 -59 1z"/>
<path d="M594 3324 c-110 -74 -144 -149 -88 -193 32 -25 61 -27 86 -4 18 16
19 15 34 -5 11 -16 25 -22 54 -22 99 0 90 120 -18 223 l-29 27 -39 -26z"/>
<path d="M2800 3319 c-41 -25 -110 -89 -110 -103 0 -19 81 -116 110 -131 79
-41 153 16 115 89 -9 16 -12 32 -7 35 13 9 32 47 32 66 0 26 -46 65 -77 65
-15 0 -44 -9 -63 -21z"/>
<path d="M9220 3322 c-64 -17 -130 -47 -130 -59 0 -7 10 -42 21 -78 15 -46 32
-75 56 -95 41 -37 66 -38 100 -4 21 21 24 32 20 60 -3 19 -2 34 4 34 18 0 59
49 59 69 0 50 -70 89 -130 73z"/>
<path d="M960 3307 c-14 -7 -31 -25 -38 -40 -19 -39 7 -87 81 -151 l57 -50 37
35 c46 44 93 117 93 145 0 12 -9 33 -21 48 -24 30 -72 35 -100 10 -16 -14 -20
-14 -48 0 -36 19 -30 19 -61 3z"/>
<path d="M8500 3303 c-52 -20 -68 -85 -30 -123 11 -11 23 -20 28 -20 4 0 6
-18 4 -39 -8 -86 86 -110 141 -35 10 13 29 53 43 89 l24 66 -62 29 c-66 30
-123 43 -148 33z"/>
<path d="M2442 3275 c-33 -28 -52 -86 -52 -163 l0 -50 67 -12 c36 -6 84 -8
105 -5 43 8 78 44 78 81 0 29 -33 64 -60 64 -16 0 -20 7 -20 30 0 36 -38 80
-69 80 -11 0 -33 -11 -49 -25z"/>
<path d="M7996 3259 c-15 -12 -26 -30 -26 -45 0 -18 -5 -24 -23 -24 -56 0 -91
-62 -62 -107 25 -38 76 -54 158 -51 l72 3 7 55 c9 77 -4 140 -37 167 -32 28
-55 29 -89 2z"/>
<path d="M4143 3258 c-12 -6 -27 -24 -32 -40 -15 -42 5 -82 73 -146 l56 -53
28 19 c57 41 112 120 112 160 0 31 -43 72 -75 72 -14 0 -34 -9 -44 -19 -16
-16 -21 -17 -32 -6 -20 20 -61 26 -86 13z"/>
<path d="M8935 3223 c-141 -33 -192 -96 -129 -160 19 -19 32 -24 54 -20 24 5
29 2 34 -18 8 -33 57 -58 89 -46 57 22 69 78 39 186 -18 63 -31 72 -87 58z"/>
<path d="M3701 3121 c-64 -22 -102 -49 -119 -84 -24 -49 27 -107 82 -93 16 4
26 2 26 -4 0 -19 48 -60 70 -60 12 0 35 14 52 31 27 27 30 35 25 73 -10 70
-46 156 -65 156 -9 -1 -41 -9 -71 -19z"/>
<path d="M3960 3110 c-22 -22 -28 -84 -9 -95 7 -5 3 -14 -10 -26 -29 -28 -36
-64 -17 -93 34 -52 97 -46 186 20 l61 45 -27 50 c-56 103 -137 146 -184 99z"/>
<path d="M8275 3123 c-29 -7 -65 -43 -65 -64 0 -35 24 -70 51 -76 22 -4 27
-11 27 -32 -1 -39 19 -70 49 -77 62 -16 112 51 121 161 l5 64 -39 10 c-53 13
-125 20 -149 14z"/>
<path d="M3340 3092 c-52 -6 -140 -44 -140 -60 0 -44 36 -137 65 -168 38 -40
64 -43 101 -11 21 18 27 32 26 58 -1 28 4 37 28 51 25 14 30 23 30 56 0 22 -6
45 -14 51 -19 16 -66 27 -96 23z"/>
<path d="M9377 3070 c-48 -38 -30 -126 48 -224 15 -20 16 -20 60 2 57 28 121
86 129 117 8 31 -6 59 -39 81 -20 13 -31 14 -56 5 -27 -9 -33 -8 -48 9 -26 30
-63 34 -94 10z"/>
<path d="M3045 3056 c-91 -22 -145 -63 -145 -109 0 -10 14 -32 30 -49 25 -24
35 -28 60 -23 23 5 30 3 30 -9 0 -24 37 -56 65 -56 14 0 37 12 52 26 24 24 25
31 20 87 -6 68 -34 147 -51 146 -6 0 -33 -6 -61 -13z"/>
<path d="M8650 3024 c-90 -51 -130 -106 -110 -154 15 -37 62 -57 96 -42 20 10
28 8 44 -8 25 -25 81 -26 102 -2 28 31 30 59 9 108 -21 46 -77 124 -89 124 -4
0 -27 -12 -52 -26z"/>
<path d="M2626 2999 c-36 -29 -36 -80 1 -109 20 -16 24 -23 15 -32 -18 -18
-14 -52 9 -82 25 -32 73 -35 107 -6 28 24 92 128 92 151 0 28 -129 99 -180 99
-10 0 -29 -9 -44 -21z"/>
<path d="M9111 2964 c-29 -37 -26 -61 9 -94 18 -17 26 -31 20 -35 -15 -9 -12
-58 6 -83 11 -16 25 -22 53 -22 45 0 85 38 126 119 l27 55 -28 23 c-46 36
-110 63 -153 63 -31 0 -44 -6 -60 -26z"/>
<path d="M2385 2947 c-32 -32 -82 -158 -70 -177 11 -18 118 -50 165 -50 57 0
90 24 90 64 0 27 -35 76 -55 76 -10 0 -12 9 -8 34 4 28 1 39 -20 60 -35 35
-62 33 -102 -7z"/>
<path d="M3455 2916 c-28 -28 -58 -122 -53 -168 3 -32 6 -34 73 -51 108 -27
175 -4 175 61 0 31 -32 72 -55 72 -10 0 -15 11 -15 35 0 70 -75 100 -125 51z"/>
<path d="M8954 2913 c-91 -50 -124 -86 -124 -134 0 -49 76 -89 108 -57 9 9 17
5 36 -15 15 -16 36 -27 51 -27 35 0 75 42 75 78 0 31 -38 112 -72 155 l-23 28
-51 -28z"/>
<path d="M3706 2828 c-34 -48 -17 -105 62 -203 l23 -29 45 24 c61 33 124 102
124 135 0 31 -41 75 -70 75 -12 0 -30 -5 -40 -10 -15 -8 -24 -6 -40 10 -28 28
-84 27 -104 -2z"/>
<path d="M2925 2803 c-95 -50 -145 -119 -124 -167 16 -35 62 -52 96 -37 22 10
28 9 45 -9 28 -30 81 -27 107 6 12 15 21 34 21 43 0 39 -86 182 -108 181 -4
-1 -20 -8 -37 -17z"/>
<path d="M8401 2806 c-46 -26 -53 -75 -15 -113 18 -18 22 -29 15 -36 -16 -16
-13 -59 5 -85 11 -17 25 -22 56 -22 48 0 85 34 131 118 l28 51 -43 32 c-84 61
-137 77 -177 55z"/>
<path d="M3185 2755 c-26 -26 -31 -54 -15 -85 8 -15 6 -20 -11 -25 -20 -7 -39
-41 -39 -71 0 -8 11 -26 25 -39 33 -34 78 -32 152 5 90 45 91 49 54 124 -53
108 -115 142 -166 91z"/>
<path d="M9380 2749 c-88 -48 -88 -48 -51 -123 47 -96 106 -135 156 -102 29
19 41 58 28 89 -8 17 -5 25 13 41 34 31 39 67 14 99 -30 38 -87 37 -160 -4z"/>
<path d="M8760 2716 c-48 -38 -100 -110 -100 -138 0 -53 52 -88 102 -67 15 6
28 16 28 22 0 6 10 1 23 -11 29 -27 67 -28 98 -3 48 39 15 127 -78 205 l-31
26 -42 -34z"/>
<path d="M9104 2671 c-33 -20 -69 -91 -80 -158 l-6 -40 62 -23 c121 -45 190
-26 190 52 0 33 -5 42 -30 56 -21 12 -28 22 -24 35 9 28 -16 77 -43 88 -32 12
-33 12 -69 -10z"/>
<path d="M2330 2673 c-45 -16 -137 -131 -126 -158 3 -8 33 -35 67 -60 47 -35
70 -45 99 -45 67 0 99 59 62 110 -19 25 -20 32 -8 54 33 64 -24 124 -94 99z"/>
<path d="M2608 2640 c-21 -23 -48 -60 -59 -83 l-22 -41 38 -33 c44 -38 112
-73 142 -73 62 0 95 80 52 126 -17 19 -19 26 -9 44 25 47 -11 100 -67 100 -29
0 -44 -8 -75 -40z"/>
<path d="M3453 2603 c-4 -16 -8 -60 -8 -100 0 -62 3 -75 24 -97 41 -43 111
-27 125 29 4 15 13 25 25 25 34 0 71 39 71 74 0 59 -68 95 -182 96 -44 0 -48
-2 -55 -27z"/>
<path d="M2929 2492 c-25 -16 -59 -47 -77 -69 l-32 -41 46 -51 c53 -59 89 -81
133 -81 55 0 87 60 57 105 -15 23 -15 28 -1 47 23 34 19 73 -11 97 -36 28 -62
26 -115 -7z"/>
<path d="M8525 2490 c-95 -14 -92 -10 -84 -94 10 -107 41 -156 99 -156 31 0
70 44 70 79 0 23 5 30 21 33 32 5 63 51 55 82 -12 48 -73 69 -161 56z"/>
<path d="M9333 2455 c-42 -30 -22 -125 26 -125 9 0 11 -6 6 -17 -16 -39 -15
-50 5 -76 30 -38 82 -37 119 2 27 28 71 127 71 157 0 20 -103 66 -160 71 -31
3 -52 -1 -67 -12z"/>
<path d="M8773 2421 c-9 -20 -18 -66 -21 -103 -4 -61 -3 -68 21 -92 14 -14 37
-26 49 -26 32 0 68 27 68 51 0 16 7 19 39 19 70 0 101 70 54 122 -19 21 -81
45 -146 57 l-49 9 -15 -37z"/>
<path d="M3210 2436 l-45 -12 3 -60 c4 -72 36 -144 74 -162 23 -11 32 -10 56
2 32 16 42 34 42 71 0 16 7 25 25 29 33 8 58 57 46 89 -21 55 -96 71 -201 43z"/>
<path d="M2506 2387 c-18 -18 -31 -22 -63 -19 -49 5 -83 -22 -83 -67 0 -42 30
-73 110 -115 82 -44 77 -46 130 58 37 72 38 109 5 141 -30 31 -69 32 -99 2z"/>
<path d="M2117 2370 c-19 -15 -27 -31 -27 -51 0 -38 16 -69 35 -69 18 0 19 -5
4 -29 -7 -10 -9 -30 -5 -44 16 -65 83 -78 135 -25 37 38 86 132 78 151 -7 18
-114 74 -157 82 -28 5 -42 2 -63 -15z"/>
<path d="M9100 2341 l-45 -6 -3 -75 c-3 -87 16 -137 60 -158 45 -21 98 14 98
67 0 10 12 20 33 26 40 13 64 56 49 91 -23 49 -94 70 -192 55z"/>
<path d="M2686 2295 c-28 -30 -36 -65 -36 -150 l0 -62 46 -7 c111 -15 176 1
194 49 16 42 -15 95 -57 95 -19 0 -23 5 -23 30 0 65 -79 94 -124 45z"/>
<path d="M8592 2214 c-12 -8 -22 -22 -22 -30 0 -17 -5 -17 -32 -3 -27 15 -77
-7 -89 -39 -19 -50 9 -91 91 -132 100 -50 96 -51 135 32 40 83 44 124 14 162
-24 30 -63 34 -97 10z"/>
<path d="M2935 2166 c-4 -26 -5 -74 -3 -108 5 -67 28 -98 75 -98 29 0 73 41
73 68 0 15 5 18 24 15 30 -6 76 35 76 67 0 59 -51 90 -161 97 l-77 6 -7 -47z"/>
<path d="M1920 2163 c-15 -19 -20 -36 -16 -55 4 -21 2 -28 -9 -28 -27 0 -55
-38 -55 -75 0 -29 6 -39 33 -56 36 -22 74 -21 165 6 46 14 52 19 52 44 0 45
-29 128 -56 161 -35 40 -83 42 -114 3z"/>
<path d="M8891 2154 c-102 -27 -151 -76 -131 -128 13 -35 52 -58 84 -50 20 5
26 2 26 -9 0 -20 47 -57 71 -57 10 0 31 11 46 24 24 21 28 31 26 73 -2 60 -35
157 -54 160 -8 1 -38 -5 -68 -13z"/>
<path d="M9342 2141 c-45 -12 -82 -48 -82 -81 0 -34 34 -70 65 -70 18 0 25 -6
25 -19 0 -10 10 -30 21 -45 17 -22 28 -26 57 -24 54 5 76 42 80 136 1 42 -1
83 -6 90 -11 17 -114 24 -160 13z"/>
<path d="M2351 2094 c-12 -15 -21 -36 -21 -47 0 -30 35 -96 76 -142 l35 -39
36 19 c20 11 56 39 80 62 36 36 43 48 43 82 0 30 -6 44 -22 55 -26 18 -61 21
-87 6 -14 -7 -23 -5 -36 10 -27 30 -79 26 -104 -6z"/>
<path d="M9090 2002 c-33 -33 -45 -90 -35 -169 l7 -55 93 4 c83 3 96 6 119 27
16 15 26 35 26 53 0 37 -43 82 -71 75 -15 -4 -19 0 -19 23 0 32 -40 70 -72 70
-11 0 -32 -13 -48 -28z"/>
<path d="M2203 1990 c-41 -17 -57 -78 -28 -110 14 -16 14 -20 -2 -48 -22 -38
-10 -79 28 -101 40 -22 77 -6 148 65 l65 64 -45 46 c-76 78 -121 101 -166 84z"/>
<path d="M2711 1961 c-21 -22 -31 -27 -44 -20 -38 22 -97 -19 -97 -68 0 -33
53 -88 107 -111 91 -38 86 -40 124 35 42 84 46 145 10 174 -33 27 -68 24 -100
-10z"/>
<path d="M1696 1949 c-17 -14 -26 -30 -26 -50 0 -24 -4 -29 -23 -29 -45 0 -75
-56 -52 -99 21 -42 63 -55 151 -48 42 3 79 8 82 11 10 10 4 135 -8 171 -21 63
-75 82 -124 44z"/>
<path d="M8622 1944 c-12 -8 -22 -24 -22 -35 0 -15 -7 -19 -38 -19 -47 0 -72
-24 -72 -69 0 -57 58 -93 172 -108 l46 -6 16 54 c23 76 21 154 -4 179 -24 24
-67 26 -98 4z"/>
<path d="M1973 1864 c-19 -19 -24 -32 -20 -54 5 -24 3 -28 -22 -33 -37 -8 -59
-56 -42 -93 18 -41 71 -57 142 -44 108 20 107 19 98 88 -5 32 -13 72 -19 88
-28 74 -89 96 -137 48z"/>
<path d="M8806 1828 c-22 -31 -20 -75 3 -95 18 -15 18 -19 5 -37 -32 -47 3
-116 59 -116 33 0 82 37 127 96 l43 55 -29 31 c-77 82 -175 113 -208 66z"/>
<path d="M9312 1794 c-16 -11 -22 -25 -22 -55 0 -33 5 -43 28 -56 26 -15 28
-19 18 -45 -8 -23 -7 -32 10 -55 30 -40 78 -43 115 -7 30 29 66 98 76 145 5
27 2 30 -58 59 -71 33 -132 39 -167 14z"/>
<path d="M1465 1718 c-28 -22 -85 -129 -85 -160 0 -23 118 -80 169 -82 51 -1
81 25 81 71 0 23 -8 41 -23 56 -19 17 -23 30 -19 59 8 69 -64 103 -123 56z"/>
<path d="M2440 1710 c-24 -24 -26 -76 -4 -101 14 -16 14 -20 -1 -43 -19 -29
-15 -65 11 -90 21 -22 72 -20 110 3 37 23 104 102 104 123 0 9 -20 34 -44 56
-79 73 -138 90 -176 52z"/>
<path d="M9070 1680 c-11 -11 -22 -31 -26 -45 -8 -31 9 -103 37 -157 19 -37
22 -39 52 -32 51 11 130 49 151 73 46 51 7 127 -60 119 -26 -3 -35 1 -43 19
-10 23 -47 43 -77 43 -8 0 -23 -9 -34 -20z"/>
<path d="M1710 1640 c-26 -26 -26 -74 1 -99 17 -15 19 -23 10 -39 -17 -33 -13
-67 12 -90 39 -37 74 -29 131 31 28 29 58 65 66 81 14 28 14 29 -28 66 -78 70
-153 89 -192 50z"/>
<path d="M8570 1620 c-26 -26 -26 -74 0 -100 16 -16 18 -25 10 -40 -16 -31
-12 -65 13 -88 52 -49 128 -7 189 105 l22 41 -24 22 c-48 40 -125 80 -157 80
-20 0 -41 -8 -53 -20z"/>
<path d="M9404 1495 c-131 -41 -183 -117 -119 -173 22 -19 35 -22 62 -17 25 4
33 2 33 -9 0 -8 10 -22 22 -30 61 -43 124 4 115 85 -6 49 -51 160 -64 158 -4
-1 -26 -7 -49 -14z"/>
<path d="M8885 1493 c-75 -16 -113 -59 -95 -107 11 -30 54 -60 75 -52 10 3 15
-1 15 -13 0 -31 39 -71 69 -71 77 0 105 84 75 228 -4 20 -10 22 -62 21 -31 -1
-66 -3 -77 -6z"/>
<path d="M1338 1440 c-37 -22 -46 -119 -21 -218 6 -24 8 -24 73 -19 55 5 111
21 150 44 3 2 11 -17 18 -43 25 -94 106 -135 152 -77 14 18 20 37 17 53 -4 20
1 29 26 45 45 28 50 83 11 114 -32 25 -78 26 -153 3 -54 -17 -55 -17 -77 5
-14 14 -35 23 -54 23 -23 0 -30 4 -30 20 0 46 -67 76 -112 50z"/>
<path d="M2565 1385 c-14 -13 -25 -36 -25 -50 0 -20 -5 -25 -24 -25 -27 0 -66
-42 -66 -71 0 -10 11 -30 24 -45 20 -24 32 -28 89 -32 37 -2 82 -1 102 2 l35
7 0 63 c0 86 -8 121 -36 151 -29 32 -68 32 -99 0z"/>
<path d="M9136 1349 c-16 -12 -26 -30 -26 -45 0 -21 -4 -24 -20 -19 -26 8 -68
-18 -79 -48 -12 -33 7 -76 43 -94 42 -22 175 -31 186 -12 16 25 23 136 10 173
-12 38 -43 66 -71 66 -9 0 -28 -9 -43 -21z"/>
<path d="M8730 1286 c-104 -22 -155 -73 -129 -128 14 -31 50 -53 78 -45 14 3
22 -2 31 -23 22 -54 103 -61 129 -11 16 29 13 96 -5 163 -18 64 -17 63 -104
44z"/>
<path d="M9342 1184 c-34 -24 -53 -69 -59 -144 l-6 -68 34 -10 c103 -32 187
-19 210 32 17 37 -5 85 -42 93 -25 5 -29 10 -29 38 0 36 -34 75 -66 75 -11 0
-30 -7 -42 -16z"/>
<path d="M1410 1116 c-97 -71 -123 -131 -77 -174 25 -24 57 -28 87 -12 15 8
24 6 40 -10 26 -26 74 -26 100 0 24 24 26 70 4 115 -19 42 -82 115 -97 115 -7
0 -32 -16 -57 -34z"/>
<path d="M8962 1083 c-18 -9 -54 -43 -79 -75 l-45 -59 28 -31 c74 -79 170
-111 207 -70 23 25 21 78 -2 101 -17 17 -18 21 -5 32 24 20 17 75 -12 98 -32
25 -48 26 -92 4z"/>
<path d="M2533 1035 c-56 -24 -54 -104 4 -130 16 -7 21 -15 17 -31 -6 -23 10
-63 30 -76 27 -18 74 -8 99 22 26 31 54 104 59 154 3 29 0 31 -67 52 -82 27
-99 28 -142 9z"/>
<path d="M8630 958 c-26 -28 -26 -72 0 -98 19 -19 19 -22 5 -43 -20 -29 -19
-49 6 -81 43 -55 121 -22 194 84 l28 41 -29 31 c-76 81 -163 109 -204 66z"/>
<path d="M2822 861 c-55 -85 -66 -137 -36 -179 23 -33 86 -31 112 3 12 15 23
21 27 15 3 -5 21 -10 40 -10 71 0 97 79 45 136 -21 22 -129 84 -147 84 -4 0
-23 -22 -41 -49z"/>
<path d="M1426 855 l-58 -35 -35 30 c-23 20 -44 30 -67 30 -54 0 -87 -54 -62
-102 13 -24 12 -28 -5 -44 -37 -34 -12 -124 35 -124 9 0 3 -12 -16 -30 -25
-26 -29 -36 -24 -62 6 -33 38 -80 89 -135 25 -27 33 -30 50 -21 37 19 115 98
127 128 28 66 -38 127 -101 94 -27 -13 -31 -13 -45 1 -8 8 -23 15 -32 15 -9 0
3 12 28 26 25 14 55 35 68 47 l22 21 33 -31 c17 -17 42 -34 55 -38 47 -14 104
53 81 96 -8 16 -5 26 15 50 32 38 33 69 3 97 -36 34 -91 29 -161 -13z"/>
<path d="M9331 854 c-6 -22 -11 -67 -11 -100 0 -77 24 -114 74 -114 35 0 76
34 76 63 0 12 9 17 30 17 55 0 87 59 60 109 -13 26 -82 51 -156 58 l-62 6 -11
-39z"/>
<path d="M8848 743 c-80 -83 -96 -136 -53 -178 30 -31 75 -33 100 -5 16 17 20
18 34 6 9 -7 22 -15 30 -18 9 -2 -3 -14 -30 -30 -117 -69 -149 -165 -66 -199
24 -10 34 -10 55 2 24 13 28 12 49 -8 12 -13 34 -23 48 -23 32 0 75 41 75 71
0 32 -34 99 -75 146 l-34 40 25 11 c35 16 47 55 30 95 -12 29 -120 137 -136
137 -3 0 -26 -21 -52 -47z"/>
<path d="M9441 626 c-60 -99 -65 -160 -16 -192 33 -21 81 -10 99 23 8 17 16
22 20 14 4 -6 23 -11 42 -11 67 0 97 69 53 124 -19 24 -135 96 -155 96 -6 0
-25 -24 -43 -54z"/>
<path d="M9797 420 c-4 -18 -7 -64 -7 -102 0 -60 3 -72 25 -93 13 -14 36 -25
50 -25 31 0 75 41 75 69 0 13 5 19 14 15 23 -9 75 24 82 52 16 64 -39 103
-156 111 l-77 6 -6 -33z"/>
<path d="M9594 414 c-12 -17 -20 -22 -27 -15 -17 17 -72 13 -89 -6 -52 -62 -4
-136 126 -194 26 -12 30 -11 48 11 36 45 68 119 68 158 0 49 -24 72 -73 72
-28 0 -40 -6 -53 -26z"/>
<path d="M1135 408 c-29 -22 -85 -133 -85 -166 0 -24 103 -72 158 -75 34 -1
40 -5 48 -31 13 -43 62 -68 145 -74 58 -4 71 -8 84 -28 22 -34 86 -34 113 0
13 17 23 22 33 15 41 -26 109 15 109 65 0 37 -50 87 -120 121 l-62 30 -29 -35
c-26 -32 -28 -33 -29 -12 0 31 -25 78 -45 86 -44 17 -105 -17 -105 -58 0 -19
-4 -22 -24 -19 -17 4 -26 14 -30 34 -3 18 -15 34 -30 40 -20 9 -23 16 -16 33
5 14 3 34 -5 52 -20 49 -65 58 -110 22z"/>
<path d="M8900 253 c-62 -23 -80 -96 -33 -133 15 -12 35 -19 45 -17 14 4 18
-1 18 -19 0 -30 41 -74 68 -74 60 0 98 82 87 187 l-7 63 -81 -1 c-45 0 -89 -3
-97 -6z"/>
<path d="M9211 210 c-45 -56 -73 -123 -65 -155 13 -52 80 -72 119 -35 18 17
25 18 52 8 56 -21 115 29 98 83 -14 44 -124 139 -160 139 -7 0 -26 -18 -44
-40z"/>
</g>
</svg>
