<?xml version="1.0" standalone="no"?>
<!DOCTYPE svg PUBLIC "-//W3C//DTD SVG 20010904//EN"
 "http://www.w3.org/TR/2001/REC-SVG-20010904/DTD/svg10.dtd">
<svg version="1.0" xmlns="http://www.w3.org/2000/svg"
 width="640.000000pt" height="1280.000000pt" viewBox="0 0 640.000000 1280.000000"
 preserveAspectRatio="xMidYMid meet">
<metadata>
Created by potrace 1.15, written by Peter Selinger 2001-2017
</metadata>
<g transform="translate(0.000000,1280.000000) scale(0.100000,-0.100000)"
fill="#000000" stroke="none">
<path d="M2742 12790 c-70 -13 -139 -49 -215 -113 -34 -28 -71 -59 -81 -67
-14 -11 -45 -15 -120 -15 l-100 0 -8 -40 c-11 -53 -38 -79 -108 -104 -72 -27
-94 -46 -86 -78 3 -12 9 -34 12 -48 11 -42 -27 -51 -154 -37 -310 35 -803 82
-864 82 -63 0 -72 -3 -98 -28 -18 -18 -37 -58 -54 -111 -29 -93 -33 -143 -11
-161 22 -18 19 -32 -16 -89 -28 -45 -32 -62 -40 -163 -4 -62 -15 -151 -23
-198 -41 -222 -8 -329 167 -548 145 -182 261 -346 307 -433 27 -53 56 -90 92
-121 69 -59 206 -148 227 -148 74 0 220 -83 335 -190 146 -137 224 -259 322
-502 51 -128 64 -194 64 -338 0 -208 -20 -307 -174 -892 -100 -378 -170 -659
-196 -788 -11 -58 -30 -123 -40 -145 -11 -22 -69 -101 -130 -175 -207 -253
-342 -479 -404 -677 -57 -183 -92 -433 -76 -538 33 -213 42 -298 38 -380 -6
-109 -23 -147 -131 -291 -95 -128 -188 -222 -263 -266 -52 -30 -60 -39 -67
-74 -5 -21 -28 -122 -52 -224 -24 -102 -65 -286 -91 -410 l-47 -225 -137 -190
c-195 -270 -186 -252 -194 -420 -19 -420 -19 -468 -2 -540 10 -43 56 -152 121
-285 70 -143 109 -236 116 -275 6 -33 24 -101 40 -152 27 -88 28 -98 22 -220
l-6 -129 36 -84 c19 -47 52 -122 72 -168 36 -81 36 -85 36 -204 -1 -115 -9
-223 -31 -433 -6 -49 -13 -106 -16 -127 l-5 -36 113 -4 c112 -3 114 -3 166
-40 33 -23 70 -39 99 -44 102 -15 302 22 421 78 61 29 108 69 183 156 35 42
36 42 103 42 82 0 117 -15 176 -75 l43 -43 -12 -349 c-6 -191 -14 -367 -16
-389 l-4 -42 138 -111 c76 -60 151 -115 167 -121 16 -6 118 -15 227 -20 110
-5 214 -15 232 -21 28 -10 45 -9 101 6 73 20 114 51 114 85 0 29 24 74 78 145
l44 60 -5 80 c-7 118 -65 266 -156 405 -34 52 -36 60 -37 140 -1 47 -2 90 -3
97 0 6 -16 21 -35 32 -74 46 -145 209 -153 351 -5 75 -3 91 17 130 25 51 180
209 228 234 19 10 74 20 137 25 104 8 107 9 143 44 90 88 176 87 279 -4 32
-28 84 -64 116 -80 124 -63 247 -152 373 -270 40 -38 83 -69 100 -73 16 -3 89
-15 162 -26 244 -36 310 -68 361 -172 30 -61 60 -175 61 -229 0 -28 28 -58 75
-82 48 -24 164 -57 201 -57 18 0 82 -16 141 -36 102 -34 113 -36 203 -31 106
6 288 53 320 82 19 18 54 110 65 176 5 26 -3 74 -25 160 -18 68 -43 187 -56
264 -20 120 -27 143 -48 160 -13 11 -29 38 -35 60 -20 75 -60 343 -66 441 -8
121 11 929 25 1074 32 328 74 581 140 835 64 244 125 578 195 1050 51 347 56
368 141 535 83 164 118 272 134 421 27 242 -40 594 -183 964 -30 77 -73 187
-95 245 -22 58 -52 157 -67 220 -29 123 -66 261 -115 430 -26 88 -32 132 -40
270 -4 91 -13 177 -18 191 -6 14 -29 56 -51 93 -112 182 -297 587 -381 831
-163 475 -240 782 -224 899 10 73 26 80 173 84 l126 4 29 -89 c40 -124 67
-173 135 -245 56 -60 129 -108 164 -108 9 0 19 9 22 21 9 26 1 65 -40 214 -66
239 -92 392 -140 810 -19 171 -39 325 -45 343 -5 19 -26 54 -46 79 -42 51
-221 212 -374 336 -134 108 -188 164 -299 311 -213 283 -461 482 -816 656
-281 138 -491 189 -810 195 -104 2 -214 0 -243 -5z m2107 -8119 c9 -6 20 -58
33 -152 23 -176 23 -179 19 -364 l-4 -150 -15 134 c-14 119 -18 137 -39 155
-14 13 -30 44 -39 80 -8 32 -25 81 -38 110 l-23 52 24 54 c23 52 49 90 62 90
3 0 12 -4 20 -9z m67 -1556 c4 -15 -9 -52 -39 -111 -110 -222 -133 -330 -119
-564 7 -129 6 -135 -15 -160 -12 -15 -25 -40 -28 -56 -4 -16 -16 -60 -27 -97
l-19 -69 -60 7 c-65 8 -177 63 -316 157 -97 64 -199 185 -213 251 -14 66 -13
75 10 107 17 24 30 30 78 35 31 4 80 13 109 21 44 12 57 22 90 67 49 68 62 78
158 128 44 23 105 63 135 89 30 25 67 54 82 64 15 10 52 51 82 91 58 77 80 87
92 40z"/>
</g>
</svg>
